<?xml version="1.0" encoding="UTF-8"?>
<!DOCTYPE svg PUBLIC "-//W3C//DTD SVG 1.1//EN" "http://www.w3.org/Graphics/SVG/1.1/DTD/svg11.dtd">
<!-- Creator: CorelDRAW -->
<svg xmlns="http://www.w3.org/2000/svg" xml:space="preserve" width="6in" height="6in" version="1.1" style="shape-rendering:geometricPrecision; text-rendering:geometricPrecision; image-rendering:optimizeQuality; fill-rule:evenodd; clip-rule:evenodd"
viewBox="0 0 6000 6000"
 xmlns:xlink="http://www.w3.org/1999/xlink"
 xmlns:xodm="http://www.corel.com/coreldraw/odm/2003">
 <defs>
  <style type="text/css">
   <![CDATA[
    .fil3 {fill:none}
    .fil2 {fill:#D2AE6D}
    .fil4 {fill:#2C4C3E}
    .fil0 {fill:#00A859}
    .fil5 {fill:#0E4231}
    .fil1 {fill:#AD853C;fill-rule:nonzero}
   ]]>
  </style>
    <clipPath id="id0" style="clip-rule:nonzero">
     <path d="M2017.09 5391.95c-4.79,0 -14.36,-1.2 -23.34,-2.99 -9.57,-1.2 -23.34,-2.99 -36.5,-2.99 -56.25,0 -85.57,32.31 -85.57,68.82 0,31.12 15.56,52.06 65.23,77.19 34.7,17.95 46.07,29.32 46.07,51.46 0,20.94 -16.76,34.71 -40.69,34.71 -8.98,0 -19.75,-2.39 -28.72,-7.18 -15.56,-8.38 -28.13,-23.94 -35.91,-56.25 -2.39,-1.2 -12.57,1.8 -13.76,3.59 0.6,13.17 4.79,51.46 8.98,64.63 14.96,6.58 40.09,11.37 61.04,11.37 52.06,0 90.96,-29.92 90.96,-72.41 0,-28.13 -11.37,-47.27 -60.44,-71.21 -44.88,-21.54 -53.26,-34.11 -53.26,-54.46 0,-22.14 16.76,-35.31 36.5,-35.31 10.77,0 19.75,1.8 28.13,6.58 11.97,7.18 17.35,19.75 20.94,46.08 1.8,1.8 11.97,1.2 13.17,-0.6 1.2,-23.94 2.99,-41.89 7.18,-61.04z"/>
    </clipPath>
     <clipPath id="id1">
      <path d="M2017.09 5391.95c-4.79,0 -14.36,-1.2 -23.34,-2.99 -9.57,-1.2 -23.34,-2.99 -36.5,-2.99 -56.25,0 -85.57,32.31 -85.57,68.82 0,31.12 15.56,52.06 65.23,77.19 34.7,17.95 46.07,29.32 46.07,51.46 0,20.94 -16.76,34.71 -40.69,34.71 -8.98,0 -19.75,-2.39 -28.72,-7.18 -15.56,-8.38 -28.13,-23.94 -35.91,-56.25 -2.39,-1.2 -12.57,1.8 -13.76,3.59 0.6,13.17 4.79,51.46 8.98,64.63 14.96,6.58 40.09,11.37 61.04,11.37 52.06,0 90.96,-29.92 90.96,-72.41 0,-28.13 -11.37,-47.27 -60.44,-71.21 -44.88,-21.54 -53.26,-34.11 -53.26,-54.46 0,-22.14 16.76,-35.31 36.5,-35.31 10.77,0 19.75,1.8 28.13,6.58 11.97,7.18 17.35,19.75 20.94,46.08 1.8,1.8 11.97,1.2 13.17,-0.6 1.2,-23.94 2.99,-41.89 7.18,-61.04z"/>
     </clipPath>
     <clipPath id="id2">
      <path d="M2017.09 5391.95c-4.79,0 -14.36,-1.2 -23.34,-2.99 -9.57,-1.2 -23.34,-2.99 -36.5,-2.99 -56.25,0 -85.57,32.31 -85.57,68.82 0,31.12 15.56,52.06 65.23,77.19 34.7,17.95 46.07,29.32 46.07,51.46 0,20.94 -16.76,34.71 -40.69,34.71 -8.98,0 -19.75,-2.39 -28.72,-7.18 -15.56,-8.38 -28.13,-23.94 -35.91,-56.25 -2.39,-1.2 -12.57,1.8 -13.76,3.59 0.6,13.17 4.79,51.46 8.98,64.63 14.96,6.58 40.09,11.37 61.04,11.37 52.06,0 90.96,-29.92 90.96,-72.41 0,-28.13 -11.37,-47.27 -60.44,-71.21 -44.88,-21.54 -53.26,-34.11 -53.26,-54.46 0,-22.14 16.76,-35.31 36.5,-35.31 10.77,0 19.75,1.8 28.13,6.58 11.97,7.18 17.35,19.75 20.94,46.08 1.8,1.8 11.97,1.2 13.17,-0.6 1.2,-23.94 2.99,-41.89 7.18,-61.04z"/>
     </clipPath>
    <clipPath id="id3" style="clip-rule:nonzero">
     <path d="M2137.97 5300.4c0,-4.19 -1.8,-11.97 -5.39,-15.56 -1.2,-1.2 -7.78,-5.39 -16.76,-5.39 -9.57,0 -22.14,5.39 -26.93,10.17 -2.99,3.59 -3.59,11.97 -2.99,16.76 1.2,10.17 5.98,19.15 13.76,22.74 4.79,2.39 22.74,0.6 25.73,-1.79 7.18,-4.19 12.57,-15.56 12.57,-26.93zm35.3 314.76c-13.17,-1.8 -16.76,-2.39 -23.94,-4.79 -8.37,-2.99 -11.96,-8.98 -11.96,-20.35 -0.6,-28.13 -0.6,-69.41 -0.6,-101.73 0,-36.5 0,-81.39 0.6,-102.93 -23.34,10.17 -57.45,16.76 -75.4,17.35 -1.2,1.8 -2.39,10.17 -1.2,12.57 11.37,3.59 20.35,5.98 26.33,12.57 3.59,4.19 4.19,8.98 4.19,12.57 0,10.77 0.6,32.31 0.6,55.65 0,32.91 0,76 -1.2,90.96 -1.2,14.96 -3.59,19.75 -10.77,22.74 -6.58,2.99 -15.56,4.19 -24.54,5.39 -1.8,1.8 -1.8,11.97 0,13.76 9.57,0 32.31,-1.8 57.45,-1.8 25.13,0 46.67,1.8 58.64,1.8 1.8,-1.8 2.99,-11.97 1.8,-13.76z"/>
    </clipPath>
     <clipPath id="id4">
      <path d="M2137.97 5300.4c0,-4.19 -1.8,-11.97 -5.39,-15.56 -1.2,-1.2 -7.78,-5.39 -16.76,-5.39 -9.57,0 -22.14,5.39 -26.93,10.17 -2.99,3.59 -3.59,11.97 -2.99,16.76 1.2,10.17 5.98,19.15 13.76,22.74 4.79,2.39 22.74,0.6 25.73,-1.79 7.18,-4.19 12.57,-15.56 12.57,-26.93zm35.3 314.76c-13.17,-1.8 -16.76,-2.39 -23.94,-4.79 -8.37,-2.99 -11.96,-8.98 -11.96,-20.35 -0.6,-28.13 -0.6,-69.41 -0.6,-101.73 0,-36.5 0,-81.39 0.6,-102.93 -23.34,10.17 -57.45,16.76 -75.4,17.35 -1.2,1.8 -2.39,10.17 -1.2,12.57 11.37,3.59 20.35,5.98 26.33,12.57 3.59,4.19 4.19,8.98 4.19,12.57 0,10.77 0.6,32.31 0.6,55.65 0,32.91 0,76 -1.2,90.96 -1.2,14.96 -3.59,19.75 -10.77,22.74 -6.58,2.99 -15.56,4.19 -24.54,5.39 -1.8,1.8 -1.8,11.97 0,13.76 9.57,0 32.31,-1.8 57.45,-1.8 25.13,0 46.67,1.8 58.64,1.8 1.8,-1.8 2.99,-11.97 1.8,-13.76z"/>
     </clipPath>
     <clipPath id="id5">
      <path d="M2137.97 5300.4c0,-4.19 -1.8,-11.97 -5.39,-15.56 -1.2,-1.2 -7.78,-5.39 -16.76,-5.39 -9.57,0 -22.14,5.39 -26.93,10.17 -2.99,3.59 -3.59,11.97 -2.99,16.76 1.2,10.17 5.98,19.15 13.76,22.74 4.79,2.39 22.74,0.6 25.73,-1.79 7.18,-4.19 12.57,-15.56 12.57,-26.93zm35.3 314.76c-13.17,-1.8 -16.76,-2.39 -23.94,-4.79 -8.37,-2.99 -11.96,-8.98 -11.96,-20.35 -0.6,-28.13 -0.6,-69.41 -0.6,-101.73 0,-36.5 0,-81.39 0.6,-102.93 -23.34,10.17 -57.45,16.76 -75.4,17.35 -1.2,1.8 -2.39,10.17 -1.2,12.57 11.37,3.59 20.35,5.98 26.33,12.57 3.59,4.19 4.19,8.98 4.19,12.57 0,10.77 0.6,32.31 0.6,55.65 0,32.91 0,76 -1.2,90.96 -1.2,14.96 -3.59,19.75 -10.77,22.74 -6.58,2.99 -15.56,4.19 -24.54,5.39 -1.8,1.8 -1.8,11.97 0,13.76 9.57,0 32.31,-1.8 57.45,-1.8 25.13,0 46.67,1.8 58.64,1.8 1.8,-1.8 2.99,-11.97 1.8,-13.76z"/>
     </clipPath>
    <clipPath id="id6" style="clip-rule:nonzero">
     <path d="M2193.02 5615.16c-1.8,1.8 -1.8,11.97 0,13.76 8.38,0 24.54,-1.8 56.25,-1.8 32.31,0 49.07,1.8 58.64,1.8 1.8,-2.39 2.39,-11.97 1.2,-13.76 -9.57,-1.2 -19.15,-2.99 -25.13,-4.79 -7.18,-2.99 -10.17,-7.18 -10.77,-22.74 -1.2,-26.93 -1.2,-84.97 -1.2,-128.06 0,-12.57 1.8,-17.95 5.98,-21.54 13.76,-12.57 31.71,-19.15 49.07,-19.15 17.35,0 28.13,5.39 36.5,13.17 11.37,10.17 15.56,26.33 16.76,36.5 2.99,21.54 2.39,90.96 1.8,120.88 -0.6,12.57 -2.99,19.15 -11.97,21.54 -3.59,1.2 -12.57,2.99 -23.34,4.19 -1.8,1.8 -1.2,11.97 0,13.76 13.17,-0.6 30.52,-1.8 59.24,-1.8 30.52,0 46.68,1.8 55.06,1.8 2.39,-2.39 2.99,-11.37 1.8,-13.76 -11.37,-1.8 -19.15,-2.99 -28.13,-7.18 -4.79,-1.8 -7.18,-6.58 -7.18,-12.57 -0.6,-22.74 -0.6,-76.59 -0.6,-108.91 0,-28.72 -3.59,-52.66 -14.96,-70.02 -12.57,-19.15 -30.52,-30.52 -55.65,-30.52 -19.75,0 -48.47,11.97 -81.98,38.9 -0.6,1.2 -2.39,0 -2.39,-1.8 0,-10.17 0.6,-25.13 1.8,-34.71 0,-1.2 -1.8,-2.99 -2.39,-2.99 -15.56,8.98 -48.47,19.75 -72.41,22.74 -1.8,1.2 -2.99,8.38 -2.39,10.77 22.74,7.78 28.13,13.17 29.92,20.94 0.6,6.58 1.2,24.54 1.2,50.87 0,36.5 0,78.39 -1.2,98.14 -0.6,10.77 -3.59,19.15 -12.57,22.14 -5.98,1.8 -13.17,2.99 -20.94,4.19z"/>
    </clipPath>
     <clipPath id="id7">
      <path d="M2193.02 5615.16c-1.8,1.8 -1.8,11.97 0,13.76 8.38,0 24.54,-1.8 56.25,-1.8 32.31,0 49.07,1.8 58.64,1.8 1.8,-2.39 2.39,-11.97 1.2,-13.76 -9.57,-1.2 -19.15,-2.99 -25.13,-4.79 -7.18,-2.99 -10.17,-7.18 -10.77,-22.74 -1.2,-26.93 -1.2,-84.97 -1.2,-128.06 0,-12.57 1.8,-17.95 5.98,-21.54 13.76,-12.57 31.71,-19.15 49.07,-19.15 17.35,0 28.13,5.39 36.5,13.17 11.37,10.17 15.56,26.33 16.76,36.5 2.99,21.54 2.39,90.96 1.8,120.88 -0.6,12.57 -2.99,19.15 -11.97,21.54 -3.59,1.2 -12.57,2.99 -23.34,4.19 -1.8,1.8 -1.2,11.97 0,13.76 13.17,-0.6 30.52,-1.8 59.24,-1.8 30.52,0 46.68,1.8 55.06,1.8 2.39,-2.39 2.99,-11.37 1.8,-13.76 -11.37,-1.8 -19.15,-2.99 -28.13,-7.18 -4.79,-1.8 -7.18,-6.58 -7.18,-12.57 -0.6,-22.74 -0.6,-76.59 -0.6,-108.91 0,-28.72 -3.59,-52.66 -14.96,-70.02 -12.57,-19.15 -30.52,-30.52 -55.65,-30.52 -19.75,0 -48.47,11.97 -81.98,38.9 -0.6,1.2 -2.39,0 -2.39,-1.8 0,-10.17 0.6,-25.13 1.8,-34.71 0,-1.2 -1.8,-2.99 -2.39,-2.99 -15.56,8.98 -48.47,19.75 -72.41,22.74 -1.8,1.2 -2.99,8.38 -2.39,10.77 22.74,7.78 28.13,13.17 29.92,20.94 0.6,6.58 1.2,24.54 1.2,50.87 0,36.5 0,78.39 -1.2,98.14 -0.6,10.77 -3.59,19.15 -12.57,22.14 -5.98,1.8 -13.17,2.99 -20.94,4.19z"/>
     </clipPath>
     <clipPath id="id8">
      <path d="M2193.02 5615.16c-1.8,1.8 -1.8,11.97 0,13.76 8.38,0 24.54,-1.8 56.25,-1.8 32.31,0 49.07,1.8 58.64,1.8 1.8,-2.39 2.39,-11.97 1.2,-13.76 -9.57,-1.2 -19.15,-2.99 -25.13,-4.79 -7.18,-2.99 -10.17,-7.18 -10.77,-22.74 -1.2,-26.93 -1.2,-84.97 -1.2,-128.06 0,-12.57 1.8,-17.95 5.98,-21.54 13.76,-12.57 31.71,-19.15 49.07,-19.15 17.35,0 28.13,5.39 36.5,13.17 11.37,10.17 15.56,26.33 16.76,36.5 2.99,21.54 2.39,90.96 1.8,120.88 -0.6,12.57 -2.99,19.15 -11.97,21.54 -3.59,1.2 -12.57,2.99 -23.34,4.19 -1.8,1.8 -1.2,11.97 0,13.76 13.17,-0.6 30.52,-1.8 59.24,-1.8 30.52,0 46.68,1.8 55.06,1.8 2.39,-2.39 2.99,-11.37 1.8,-13.76 -11.37,-1.8 -19.15,-2.99 -28.13,-7.18 -4.79,-1.8 -7.18,-6.58 -7.18,-12.57 -0.6,-22.74 -0.6,-76.59 -0.6,-108.91 0,-28.72 -3.59,-52.66 -14.96,-70.02 -12.57,-19.15 -30.52,-30.52 -55.65,-30.52 -19.75,0 -48.47,11.97 -81.98,38.9 -0.6,1.2 -2.39,0 -2.39,-1.8 0,-10.17 0.6,-25.13 1.8,-34.71 0,-1.2 -1.8,-2.99 -2.39,-2.99 -15.56,8.98 -48.47,19.75 -72.41,22.74 -1.8,1.2 -2.99,8.38 -2.39,10.77 22.74,7.78 28.13,13.17 29.92,20.94 0.6,6.58 1.2,24.54 1.2,50.87 0,36.5 0,78.39 -1.2,98.14 -0.6,10.77 -3.59,19.15 -12.57,22.14 -5.98,1.8 -13.17,2.99 -20.94,4.19z"/>
     </clipPath>
    <clipPath id="id9" style="clip-rule:nonzero">
     <path d="M2695.09 5587.04c1.2,-2.39 2.39,-11.37 2.39,-14.96 0,-1.8 -1.8,-2.99 -2.39,-2.99 -20.94,20.35 -46.08,28.13 -66.43,28.13 -26.93,0 -49.07,-8.38 -67.62,-31.72 -14.96,-17.35 -22.14,-44.88 -22.14,-74.2 0,-41.89 20.35,-81.98 64.03,-81.98 30.52,0 52.66,19.75 64.63,31.72 1.2,0.6 4.19,0 5.98,-0.6 4.79,-2.39 15.56,-14.36 19.15,-22.74 0.6,-1.8 1.2,-6.58 1.2,-8.38 -2.39,-6.58 -11.37,-11.97 -17.95,-14.96 -11.37,-5.39 -23.94,-8.38 -46.68,-8.38 -20.35,0 -52.66,10.17 -75.4,23.94 -40.09,23.94 -59.24,62.24 -59.24,104.72 0,29.92 7.78,58.04 23.34,79.59 19.15,26.33 45.48,40.09 82.58,40.09 25.13,0 64.03,-10.77 94.55,-47.28z"/>
    </clipPath>
     <clipPath id="id10">
      <path d="M2695.09 5587.04c1.2,-2.39 2.39,-11.37 2.39,-14.96 0,-1.8 -1.8,-2.99 -2.39,-2.99 -20.94,20.35 -46.08,28.13 -66.43,28.13 -26.93,0 -49.07,-8.38 -67.62,-31.72 -14.96,-17.35 -22.14,-44.88 -22.14,-74.2 0,-41.89 20.35,-81.98 64.03,-81.98 30.52,0 52.66,19.75 64.63,31.72 1.2,0.6 4.19,0 5.98,-0.6 4.79,-2.39 15.56,-14.36 19.15,-22.74 0.6,-1.8 1.2,-6.58 1.2,-8.38 -2.39,-6.58 -11.37,-11.97 -17.95,-14.96 -11.37,-5.39 -23.94,-8.38 -46.68,-8.38 -20.35,0 -52.66,10.17 -75.4,23.94 -40.09,23.94 -59.24,62.24 -59.24,104.72 0,29.92 7.78,58.04 23.34,79.59 19.15,26.33 45.48,40.09 82.58,40.09 25.13,0 64.03,-10.77 94.55,-47.28z"/>
     </clipPath>
     <clipPath id="id11">
      <path d="M2695.09 5587.04c1.2,-2.39 2.39,-11.37 2.39,-14.96 0,-1.8 -1.8,-2.99 -2.39,-2.99 -20.94,20.35 -46.08,28.13 -66.43,28.13 -26.93,0 -49.07,-8.38 -67.62,-31.72 -14.96,-17.35 -22.14,-44.88 -22.14,-74.2 0,-41.89 20.35,-81.98 64.03,-81.98 30.52,0 52.66,19.75 64.63,31.72 1.2,0.6 4.19,0 5.98,-0.6 4.79,-2.39 15.56,-14.36 19.15,-22.74 0.6,-1.8 1.2,-6.58 1.2,-8.38 -2.39,-6.58 -11.37,-11.97 -17.95,-14.96 -11.37,-5.39 -23.94,-8.38 -46.68,-8.38 -20.35,0 -52.66,10.17 -75.4,23.94 -40.09,23.94 -59.24,62.24 -59.24,104.72 0,29.92 7.78,58.04 23.34,79.59 19.15,26.33 45.48,40.09 82.58,40.09 25.13,0 64.03,-10.77 94.55,-47.28z"/>
     </clipPath>
    <clipPath id="id12" style="clip-rule:nonzero">
     <path d="M2926.08 5572.07c-22.14,19.15 -43.69,25.13 -67.02,25.13 -25.73,0 -47.28,-7.78 -65.22,-28.13 -13.76,-15.56 -22.74,-41.29 -23.34,-62.83 0,-2.99 1.2,-6.58 3.59,-6.58 47.87,-1.8 130.45,-5.98 154.99,-13.17 1.8,-1.2 4.19,-9.57 3.59,-11.37 -5.39,-1.2 -7.78,-3.59 -8.38,-5.39 -4.79,-31.72 -24.54,-83.78 -81.98,-83.78 -17.35,0 -45.48,7.78 -62.83,19.15 -31.12,20.35 -52.06,56.25 -52.06,107.12 0,32.91 8.98,68.81 32.31,93.35 17.35,18.55 41.29,28.72 71.81,28.72 28.72,0 67.02,-15.56 94.55,-45.48 1.2,-1.8 2.99,-10.17 2.39,-14.36 0,-0.6 -1.8,-1.8 -2.39,-2.39zm-102.33 -166.96c33.51,0 51.46,35.91 55.06,66.43 0,2.39 -2.39,4.19 -3.59,4.79 -12.57,2.99 -83.18,4.79 -101.13,4.19 -1.2,0 -2.39,-2.39 -2.39,-4.19 2.99,-44.88 24.54,-71.21 52.06,-71.21z"/>
    </clipPath>
     <clipPath id="id13">
      <path d="M2926.08 5572.07c-22.14,19.15 -43.69,25.13 -67.02,25.13 -25.73,0 -47.28,-7.78 -65.22,-28.13 -13.76,-15.56 -22.74,-41.29 -23.34,-62.83 0,-2.99 1.2,-6.58 3.59,-6.58 47.87,-1.8 130.45,-5.98 154.99,-13.17 1.8,-1.2 4.19,-9.57 3.59,-11.37 -5.39,-1.2 -7.78,-3.59 -8.38,-5.39 -4.79,-31.72 -24.54,-83.78 -81.98,-83.78 -17.35,0 -45.48,7.78 -62.83,19.15 -31.12,20.35 -52.06,56.25 -52.06,107.12 0,32.91 8.98,68.81 32.31,93.35 17.35,18.55 41.29,28.72 71.81,28.72 28.72,0 67.02,-15.56 94.55,-45.48 1.2,-1.8 2.99,-10.17 2.39,-14.36 0,-0.6 -1.8,-1.8 -2.39,-2.39zm-102.33 -166.96c33.51,0 51.46,35.91 55.06,66.43 0,2.39 -2.39,4.19 -3.59,4.79 -12.57,2.99 -83.18,4.79 -101.13,4.19 -1.2,0 -2.39,-2.39 -2.39,-4.19 2.99,-44.88 24.54,-71.21 52.06,-71.21z"/>
     </clipPath>
     <clipPath id="id14">
      <path d="M2926.08 5572.07c-22.14,19.15 -43.69,25.13 -67.02,25.13 -25.73,0 -47.28,-7.78 -65.22,-28.13 -13.76,-15.56 -22.74,-41.29 -23.34,-62.83 0,-2.99 1.2,-6.58 3.59,-6.58 47.87,-1.8 130.45,-5.98 154.99,-13.17 1.8,-1.2 4.19,-9.57 3.59,-11.37 -5.39,-1.2 -7.78,-3.59 -8.38,-5.39 -4.79,-31.72 -24.54,-83.78 -81.98,-83.78 -17.35,0 -45.48,7.78 -62.83,19.15 -31.12,20.35 -52.06,56.25 -52.06,107.12 0,32.91 8.98,68.81 32.31,93.35 17.35,18.55 41.29,28.72 71.81,28.72 28.72,0 67.02,-15.56 94.55,-45.48 1.2,-1.8 2.99,-10.17 2.39,-14.36 0,-0.6 -1.8,-1.8 -2.39,-2.39zm-102.33 -166.96c33.51,0 51.46,35.91 55.06,66.43 0,2.39 -2.39,4.19 -3.59,4.79 -12.57,2.99 -83.18,4.79 -101.13,4.19 -1.2,0 -2.39,-2.39 -2.39,-4.19 2.99,-44.88 24.54,-71.21 52.06,-71.21z"/>
     </clipPath>
    <clipPath id="id15" style="clip-rule:nonzero">
     <path d="M3271.96 5615.76c-16.16,-2.39 -23.94,-2.99 -34.11,-5.39 -14.36,-3.59 -17.35,-13.17 -18.55,-35.91 -1.2,-23.34 -1.8,-127.46 -1.8,-159.78 0,-114.89 0.6,-129.26 2.39,-147.81 -0.6,-1.2 -5.39,-2.39 -6.58,-1.8 -20.35,11.97 -59.24,24.54 -90.96,27.53 -1.2,1.8 -2.39,10.77 -0.6,13.17 11.97,0 24.54,0.6 32.31,1.8 11.37,0.6 13.17,10.17 14.36,18.55 1.2,11.37 1.8,62.23 1.8,120.28 0,52.66 -0.6,103.52 -1.8,130.45 0,22.14 -4.19,31.12 -20.94,34.11 -10.17,2.39 -18.55,2.99 -31.12,4.19 -2.39,1.8 -1.8,11.97 0,13.76 11.37,0 39.49,-1.8 77.79,-1.8 37.7,0 61.64,1.8 76,1.8 1.8,-1.2 2.99,-11.37 1.8,-13.17z"/>
    </clipPath>
     <clipPath id="id16">
      <path d="M3271.96 5615.76c-16.16,-2.39 -23.94,-2.99 -34.11,-5.39 -14.36,-3.59 -17.35,-13.17 -18.55,-35.91 -1.2,-23.34 -1.8,-127.46 -1.8,-159.78 0,-114.89 0.6,-129.26 2.39,-147.81 -0.6,-1.2 -5.39,-2.39 -6.58,-1.8 -20.35,11.97 -59.24,24.54 -90.96,27.53 -1.2,1.8 -2.39,10.77 -0.6,13.17 11.97,0 24.54,0.6 32.31,1.8 11.37,0.6 13.17,10.17 14.36,18.55 1.2,11.37 1.8,62.23 1.8,120.28 0,52.66 -0.6,103.52 -1.8,130.45 0,22.14 -4.19,31.12 -20.94,34.11 -10.17,2.39 -18.55,2.99 -31.12,4.19 -2.39,1.8 -1.8,11.97 0,13.76 11.37,0 39.49,-1.8 77.79,-1.8 37.7,0 61.64,1.8 76,1.8 1.8,-1.2 2.99,-11.37 1.8,-13.17z"/>
     </clipPath>
     <clipPath id="id17">
      <path d="M3271.96 5615.76c-16.16,-2.39 -23.94,-2.99 -34.11,-5.39 -14.36,-3.59 -17.35,-13.17 -18.55,-35.91 -1.2,-23.34 -1.8,-127.46 -1.8,-159.78 0,-114.89 0.6,-129.26 2.39,-147.81 -0.6,-1.2 -5.39,-2.39 -6.58,-1.8 -20.35,11.97 -59.24,24.54 -90.96,27.53 -1.2,1.8 -2.39,10.77 -0.6,13.17 11.97,0 24.54,0.6 32.31,1.8 11.37,0.6 13.17,10.17 14.36,18.55 1.2,11.37 1.8,62.23 1.8,120.28 0,52.66 -0.6,103.52 -1.8,130.45 0,22.14 -4.19,31.12 -20.94,34.11 -10.17,2.39 -18.55,2.99 -31.12,4.19 -2.39,1.8 -1.8,11.97 0,13.76 11.37,0 39.49,-1.8 77.79,-1.8 37.7,0 61.64,1.8 76,1.8 1.8,-1.2 2.99,-11.37 1.8,-13.17z"/>
     </clipPath>
    <clipPath id="id18" style="clip-rule:nonzero">
     <path d="M3368.91 5660.64c122.07,-38.9 217.22,-135.84 217.22,-255.52 0,-76.59 -41.29,-140.03 -111.91,-140.03 -25.13,0 -51.46,9.57 -71.21,22.74 -35.31,23.34 -54.46,62.23 -54.46,103.52 0,63.43 43.09,107.12 88.56,107.12 24.54,0 62.24,-14.96 86.77,-31.12 1.2,-1.2 2.99,0 2.39,1.8 -22.14,68.81 -67.02,134.64 -163.37,178.33 -0.6,2.39 4.19,13.17 5.98,13.17zm87.37 -376.4c47.87,0 78.99,53.26 78.99,119.68 0,10.17 -0.6,22.14 -4.19,35.91 -1.2,4.19 -5.39,9.57 -8.98,12.57 -11.37,7.78 -28.72,13.17 -44.88,13.17 -41.29,0 -82.58,-29.32 -82.58,-99.34 0,-49.07 25.73,-81.98 61.63,-81.98z"/>
    </clipPath>
     <clipPath id="id19">
      <path d="M3368.91 5660.64c122.07,-38.9 217.22,-135.84 217.22,-255.52 0,-76.59 -41.29,-140.03 -111.91,-140.03 -25.13,0 -51.46,9.57 -71.21,22.74 -35.31,23.34 -54.46,62.23 -54.46,103.52 0,63.43 43.09,107.12 88.56,107.12 24.54,0 62.24,-14.96 86.77,-31.12 1.2,-1.2 2.99,0 2.39,1.8 -22.14,68.81 -67.02,134.64 -163.37,178.33 -0.6,2.39 4.19,13.17 5.98,13.17zm87.37 -376.4c47.87,0 78.99,53.26 78.99,119.68 0,10.17 -0.6,22.14 -4.19,35.91 -1.2,4.19 -5.39,9.57 -8.98,12.57 -11.37,7.78 -28.72,13.17 -44.88,13.17 -41.29,0 -82.58,-29.32 -82.58,-99.34 0,-49.07 25.73,-81.98 61.63,-81.98z"/>
     </clipPath>
     <clipPath id="id20">
      <path d="M3368.91 5660.64c122.07,-38.9 217.22,-135.84 217.22,-255.52 0,-76.59 -41.29,-140.03 -111.91,-140.03 -25.13,0 -51.46,9.57 -71.21,22.74 -35.31,23.34 -54.46,62.23 -54.46,103.52 0,63.43 43.09,107.12 88.56,107.12 24.54,0 62.24,-14.96 86.77,-31.12 1.2,-1.2 2.99,0 2.39,1.8 -22.14,68.81 -67.02,134.64 -163.37,178.33 -0.6,2.39 4.19,13.17 5.98,13.17zm87.37 -376.4c47.87,0 78.99,53.26 78.99,119.68 0,10.17 -0.6,22.14 -4.19,35.91 -1.2,4.19 -5.39,9.57 -8.98,12.57 -11.37,7.78 -28.72,13.17 -44.88,13.17 -41.29,0 -82.58,-29.32 -82.58,-99.34 0,-49.07 25.73,-81.98 61.63,-81.98z"/>
     </clipPath>
    <clipPath id="id21" style="clip-rule:nonzero">
     <path d="M3823.7 5263.3c-8.38,7.18 -14.96,8.98 -28.72,8.98 -20.94,0.6 -54.46,-2.99 -65.83,-2.99 -4.19,0 -8.98,4.79 -11.97,8.38 -12.56,16.76 -43.68,90.96 -53.85,125.07 -0.6,2.99 -0.6,11.97 1.2,14.96 16.76,11.37 61.63,31.12 94.55,54.46 38.3,26.93 50.87,49.07 50.87,86.17 0,41.89 -28.72,70.61 -69.42,70.61 -47.27,0 -75.4,-26.93 -92.15,-53.86 -1.2,0 -5.98,1.2 -7.18,2.39 -4.19,7.18 -9.57,22.14 -9.57,28.72 0,5.39 4.19,14.36 8.98,19.15 14.36,13.76 37.7,26.93 74.8,26.93 63.43,0 138.83,-51.46 138.83,-125.67 0,-38.3 -15.56,-62.83 -49.67,-87.37 -28.72,-20.35 -78.99,-45.48 -108.91,-61.64 -1.2,-0.6 -2.99,-4.79 -2.39,-7.78 3.59,-11.97 14.96,-39.5 20.94,-50.86 1.2,-1.8 4.19,-4.79 7.18,-4.79 9.57,0 34.71,3.59 63.43,3.59 7.18,0 13.76,-2.99 19.75,-8.38 11.97,-10.77 22.74,-31.72 25.73,-40.09 0,-2.39 -5.39,-5.98 -6.58,-5.98z"/>
    </clipPath>
     <clipPath id="id22">
      <path d="M3823.7 5263.3c-8.38,7.18 -14.96,8.98 -28.72,8.98 -20.94,0.6 -54.46,-2.99 -65.83,-2.99 -4.19,0 -8.98,4.79 -11.97,8.38 -12.56,16.76 -43.68,90.96 -53.85,125.07 -0.6,2.99 -0.6,11.97 1.2,14.96 16.76,11.37 61.63,31.12 94.55,54.46 38.3,26.93 50.87,49.07 50.87,86.17 0,41.89 -28.72,70.61 -69.42,70.61 -47.27,0 -75.4,-26.93 -92.15,-53.86 -1.2,0 -5.98,1.2 -7.18,2.39 -4.19,7.18 -9.57,22.14 -9.57,28.72 0,5.39 4.19,14.36 8.98,19.15 14.36,13.76 37.7,26.93 74.8,26.93 63.43,0 138.83,-51.46 138.83,-125.67 0,-38.3 -15.56,-62.83 -49.67,-87.37 -28.72,-20.35 -78.99,-45.48 -108.91,-61.64 -1.2,-0.6 -2.99,-4.79 -2.39,-7.78 3.59,-11.97 14.96,-39.5 20.94,-50.86 1.2,-1.8 4.19,-4.79 7.18,-4.79 9.57,0 34.71,3.59 63.43,3.59 7.18,0 13.76,-2.99 19.75,-8.38 11.97,-10.77 22.74,-31.72 25.73,-40.09 0,-2.39 -5.39,-5.98 -6.58,-5.98z"/>
     </clipPath>
     <clipPath id="id23">
      <path d="M3823.7 5263.3c-8.38,7.18 -14.96,8.98 -28.72,8.98 -20.94,0.6 -54.46,-2.99 -65.83,-2.99 -4.19,0 -8.98,4.79 -11.97,8.38 -12.56,16.76 -43.68,90.96 -53.85,125.07 -0.6,2.99 -0.6,11.97 1.2,14.96 16.76,11.37 61.63,31.12 94.55,54.46 38.3,26.93 50.87,49.07 50.87,86.17 0,41.89 -28.72,70.61 -69.42,70.61 -47.27,0 -75.4,-26.93 -92.15,-53.86 -1.2,0 -5.98,1.2 -7.18,2.39 -4.19,7.18 -9.57,22.14 -9.57,28.72 0,5.39 4.19,14.36 8.98,19.15 14.36,13.76 37.7,26.93 74.8,26.93 63.43,0 138.83,-51.46 138.83,-125.67 0,-38.3 -15.56,-62.83 -49.67,-87.37 -28.72,-20.35 -78.99,-45.48 -108.91,-61.64 -1.2,-0.6 -2.99,-4.79 -2.39,-7.78 3.59,-11.97 14.96,-39.5 20.94,-50.86 1.2,-1.8 4.19,-4.79 7.18,-4.79 9.57,0 34.71,3.59 63.43,3.59 7.18,0 13.76,-2.99 19.75,-8.38 11.97,-10.77 22.74,-31.72 25.73,-40.09 0,-2.39 -5.39,-5.98 -6.58,-5.98z"/>
     </clipPath>
    <clipPath id="id24" style="clip-rule:nonzero">
     <path d="M4033.75 5265.09c-27.53,0 -52.66,10.17 -71.21,25.73 -20.94,16.76 -33.51,42.48 -33.51,68.81 0,32.91 15.56,59.84 59.84,90.36 1.2,0.6 1.2,2.39 -0.6,3.59 -62.23,43.69 -74.2,65.23 -74.2,91.56 0,38.3 28.72,88.57 107.71,88.57 62.83,0 114.3,-47.28 114.3,-99.34 0,-41.89 -22.74,-64.03 -74.8,-98.14 -1.2,-0.6 -0.6,-2.39 0,-2.99 47.87,-32.31 62.24,-54.46 62.24,-81.98 0,-50.26 -38.3,-86.17 -89.76,-86.17zm-11.97 17.35c36.5,0 64.03,29.92 64.03,73 0,22.14 -8.38,46.08 -37.1,70.02 -1.2,1.2 -3.59,1.8 -5.39,0.6 -48.47,-29.32 -74.2,-49.07 -74.2,-87.37 0,-34.11 20.94,-56.25 52.66,-56.25zm12.57 333.91c-48.47,0 -78.39,-38.9 -78.39,-78.99 0,-28.72 13.76,-50.26 44.88,-76 0.6,-0.6 4.79,-0.6 5.39,0 61.64,35.91 85.57,57.45 85.57,98.74 0,37.7 -26.93,56.25 -57.45,56.25z"/>
    </clipPath>
     <clipPath id="id25">
      <path d="M4033.75 5265.09c-27.53,0 -52.66,10.17 -71.21,25.73 -20.94,16.76 -33.51,42.48 -33.51,68.81 0,32.91 15.56,59.84 59.84,90.36 1.2,0.6 1.2,2.39 -0.6,3.59 -62.23,43.69 -74.2,65.23 -74.2,91.56 0,38.3 28.72,88.57 107.71,88.57 62.83,0 114.3,-47.28 114.3,-99.34 0,-41.89 -22.74,-64.03 -74.8,-98.14 -1.2,-0.6 -0.6,-2.39 0,-2.99 47.87,-32.31 62.24,-54.46 62.24,-81.98 0,-50.26 -38.3,-86.17 -89.76,-86.17zm-11.97 17.35c36.5,0 64.03,29.92 64.03,73 0,22.14 -8.38,46.08 -37.1,70.02 -1.2,1.2 -3.59,1.8 -5.39,0.6 -48.47,-29.32 -74.2,-49.07 -74.2,-87.37 0,-34.11 20.94,-56.25 52.66,-56.25zm12.57 333.91c-48.47,0 -78.39,-38.9 -78.39,-78.99 0,-28.72 13.76,-50.26 44.88,-76 0.6,-0.6 4.79,-0.6 5.39,0 61.64,35.91 85.57,57.45 85.57,98.74 0,37.7 -26.93,56.25 -57.45,56.25z"/>
     </clipPath>
     <clipPath id="id26">
      <path d="M4033.75 5265.09c-27.53,0 -52.66,10.17 -71.21,25.73 -20.94,16.76 -33.51,42.48 -33.51,68.81 0,32.91 15.56,59.84 59.84,90.36 1.2,0.6 1.2,2.39 -0.6,3.59 -62.23,43.69 -74.2,65.23 -74.2,91.56 0,38.3 28.72,88.57 107.71,88.57 62.83,0 114.3,-47.28 114.3,-99.34 0,-41.89 -22.74,-64.03 -74.8,-98.14 -1.2,-0.6 -0.6,-2.39 0,-2.99 47.87,-32.31 62.24,-54.46 62.24,-81.98 0,-50.26 -38.3,-86.17 -89.76,-86.17zm-11.97 17.35c36.5,0 64.03,29.92 64.03,73 0,22.14 -8.38,46.08 -37.1,70.02 -1.2,1.2 -3.59,1.8 -5.39,0.6 -48.47,-29.32 -74.2,-49.07 -74.2,-87.37 0,-34.11 20.94,-56.25 52.66,-56.25zm12.57 333.91c-48.47,0 -78.39,-38.9 -78.39,-78.99 0,-28.72 13.76,-50.26 44.88,-76 0.6,-0.6 4.79,-0.6 5.39,0 61.64,35.91 85.57,57.45 85.57,98.74 0,37.7 -26.93,56.25 -57.45,56.25z"/>
     </clipPath>
    <clipPath id="id27">
     <path d="M1934.98 2328.98c0,0 224.79,86.94 268.96,186.57 44.17,99.63 398.4,1306.5 398.4,1306.5l419.34 -1114.84 421.11 1112.76 352.74 -1158.3c0,0 -2.32,-143.07 134.25,-225.26 136.57,-82.19 190.42,-115.14 190.42,-115.14 0,0 -193.8,95.33 -357.56,79.78 -163.76,-15.54 -221.33,-13.78 -221.33,-13.78 0,0 97.56,29.6 120.48,146.13 22.92,116.53 -258.64,949.1 -258.64,949.1l-379.57 -980.02 -375.3 985.82 -240.4 -848.72c0,0 -35.53,-131.07 25.52,-200 61.05,-68.94 98.86,-63.64 98.86,-63.64 0,0 9.72,-8.2 -116.35,12.29 -126.06,20.5 -272.1,-12.07 -348.7,-29.31 -76.6,-17.25 -132.22,-29.94 -132.22,-29.94z"/>
    </clipPath>
     <clipPath id="id28">
      <path d="M1934.98 2328.98c0,0 224.79,86.94 268.96,186.57 44.17,99.63 398.4,1306.5 398.4,1306.5l419.34 -1114.84 421.11 1112.76 352.74 -1158.3c0,0 -2.32,-143.07 134.25,-225.26 136.57,-82.19 190.42,-115.14 190.42,-115.14 0,0 -193.8,95.33 -357.56,79.78 -163.76,-15.54 -221.33,-13.78 -221.33,-13.78 0,0 97.56,29.6 120.48,146.13 22.92,116.53 -258.64,949.1 -258.64,949.1l-379.57 -980.02 -375.3 985.82 -240.4 -848.72c0,0 -35.53,-131.07 25.52,-200 61.05,-68.94 98.86,-63.64 98.86,-63.64 0,0 9.72,-8.2 -116.35,12.29 -126.06,20.5 -272.1,-12.07 -348.7,-29.31 -76.6,-17.25 -132.22,-29.94 -132.22,-29.94z"/>
     </clipPath>
     <clipPath id="id29">
      <path d="M1934.98 2328.98c0,0 224.79,86.94 268.96,186.57 44.17,99.63 398.4,1306.5 398.4,1306.5l419.34 -1114.84 421.11 1112.76 352.74 -1158.3c0,0 -2.32,-143.07 134.25,-225.26 136.57,-82.19 190.42,-115.14 190.42,-115.14 0,0 -193.8,95.33 -357.56,79.78 -163.76,-15.54 -221.33,-13.78 -221.33,-13.78 0,0 97.56,29.6 120.48,146.13 22.92,116.53 -258.64,949.1 -258.64,949.1l-379.57 -980.02 -375.3 985.82 -240.4 -848.72c0,0 -35.53,-131.07 25.52,-200 61.05,-68.94 98.86,-63.64 98.86,-63.64 0,0 9.72,-8.2 -116.35,12.29 -126.06,20.5 -272.1,-12.07 -348.7,-29.31 -76.6,-17.25 -132.22,-29.94 -132.22,-29.94z"/>
     </clipPath>
 </defs>
 <g id="Layer_x0020_1">
  <metadata id="CorelCorpID_0Corel-Layer"/>
  <g id="_2361451728384">
   <path class="fil0" d="M3512.2 1978.49c6.19,16.56 8.8,214.1 4.71,227.02 -4.09,12.95 -1.16,5.7 -7.58,13.5 -5.79,-17.96 -33.18,-106.07 -32.57,-120.06l32.53 -116.35c0.6,-1.09 1.78,-2.87 2.91,-4.11zm279.89 552.78c21.89,-39.34 73.58,-59.05 109.04,-89.98 25.98,-22.67 127.54,-64.91 165.22,-87.06l53.84 -32.94 23.13 -2.94c10.97,-81.57 -17.43,-582.64 2.71,-666.37 11.01,-45.78 43.62,-132.32 41.52,-179.23 -28.65,10.22 -34.14,82.86 -45.05,113.52 -18.94,-19.6 -13.37,-56.08 -6.12,-79.24 32.77,-104.72 69.01,-28.12 93.38,-94.35 14.87,-40.39 16.3,-22.69 -0.2,-73 -12.94,-39.47 -18.83,-4.49 -21.36,-58.56 -45.91,-16.98 -12.93,-6.25 -40.27,-31.4 -20.74,-9.34 -148.72,0.24 -186.29,72.87 -22.11,42.75 1.39,179.43 -10.35,245.19 -42.88,-16.2 -37.66,-108.98 -74.66,-125.82 -11.47,38.05 21.89,101.66 40.09,134.06 32.03,56.99 25.09,55.76 16.48,160.65 -33.17,-17.79 -65.15,-205.89 -79.15,-253.05 -10.92,-36.78 15.33,-53.67 21.22,-85.93 7.01,-33.28 12.06,-41.27 29.06,-62.45l10.62 14.51c0.97,-0.8 11.88,-4.97 13.78,-5.86 2.81,-50.98 46.98,-97.71 65.65,-134.8 55.23,-0.46 83.42,49.17 129.23,-7.32 26.3,-32.43 101.37,-28.74 48.32,-89.13 8.84,-21.17 23.48,-15.82 10.2,-39.05 -10.23,-17.88 -22.26,-13.39 -34.02,-34.59 6.81,-14.14 28.74,-28.99 24.83,-49.57 -4.09,-21.51 -7.98,-5.21 -12.76,-25.15 -5.56,-23.22 5.41,-7.01 0.14,-30.56 -4.82,-21.55 -6.57,-7.61 -16.59,-20.43 -30.53,-39.05 12.06,-46.92 -73.43,-51.28 -10.74,-26.94 -21.89,-45.48 -52.89,-50.21 -52.19,-7.98 -52.09,8.48 -73.43,32.09 -62.53,-0.66 -54.2,-11.28 -79.8,35.47 -56.4,-6.79 -63.05,-16.24 -68.92,45.09 -20.74,0.13 -30.71,-8.17 -44.82,5.7 -19.23,18.92 0.33,18.55 -27.36,40.57 -27.17,21.61 -48.46,48.97 -26.33,94.85 11.89,24.65 20.5,10.69 25.17,37.77 10.22,59.29 75.39,-7.62 104.03,93.35 32.54,114.72 34.71,169.37 -22.75,274.02 -10.02,18.25 -16.28,19.89 -25.26,42.61 -9.1,23.05 -18.58,82.28 -41,89.94l-8.68 -459.64c-16,-21.56 -14.18,-3.82 -27,-25.98 -15.67,-27.07 6.77,-21.36 -26.38,-30.1l-4.39 211.08c-29.53,-30.7 -32.75,-99.44 -35.39,-152.17 -1.63,-32.4 -12.86,-160.34 -8.46,-174.89 31.25,2.91 14.69,5.56 34.06,21.82 24.64,-12.63 46.96,-52.57 64.17,-71.48 16.2,-17.8 38.64,-24.63 52.88,-43.24 16.23,-21.21 -3.83,-12.19 23.33,-22.81 10.98,-4.29 25.57,-4.15 37.82,-8.27 16.03,-5.39 17.27,-11.83 29.87,-19.55 29.73,-18.19 43.22,2.06 70.55,-20.41 38.03,-31.26 101.98,-19.72 137.68,14.11 6.07,5.76 14.5,19.85 23.1,4.92 10.06,-17.46 -2.96,-15.21 -9.24,-36.93 21.21,-20.04 17.4,-26.64 24.76,-53.54 6.81,-24.85 4.29,-38.06 -39.97,-49.38 12.35,-86.81 -58.95,-52.52 -75.75,-49.96l-16.94 -32.35 -74.24 -5.31c-1.69,-47.53 -5.9,-42.33 -41.03,-55.3 12.7,-63 3.58,-80.63 -58.35,-67.49 -15.74,-87.34 -49.48,-43.91 -86.33,-35.32 -14.13,-10.87 -33.41,-40.83 -62.65,-31.09 -30.18,10.05 -29.6,39.51 -44.98,62.19 -27.44,-10.9 -14.77,-23.02 -56.65,-17.31 -17.61,15.64 -13.7,26.5 -28.33,44.18 -55.73,-13.91 -68.16,14.54 -58.89,67.7l-39.24 10.71c-10.24,48.56 5.45,37.08 9.59,76.04 18.63,175.72 -61.12,133.35 -65.2,205.26 64.39,18.24 42.72,-4.23 58.39,33.17 16.52,39.43 21.7,24.57 67.92,27.95 29.65,40.45 17.41,19.34 66.04,24.13 20.97,39.94 24.61,23.32 29.82,83.88 3.39,39.43 1.19,79.25 0.01,118.75 -2.78,93.71 25.61,126.33 35.13,201.04 -42.4,30.14 -33.24,69.34 -20.49,123.84l38.26 -0.54 4.53 145.87c-0.72,50.3 1.21,100.44 0.8,150.32 -24.09,-9.22 -31.09,-42.26 -42.06,-65.17 -12.96,-27.08 -29.43,-34.29 -30.92,-68.15 21.54,-15.01 33.79,-16.03 31.76,-50.15 -3.46,-58.07 12.84,-16.01 12.08,-63.15 -11.67,-22.59 -15.68,-13.59 -29.63,-34.05 -28.52,-41.83 -43.43,-79.78 -101.88,-95.28l-21.4 12.57c-25.26,14.2 -23.85,36.18 -56.67,50.51 -18.39,8.03 -36.69,5.75 -56.66,11.51 -30.3,8.74 -17.95,16.43 -37.24,35.74 -25.93,25.95 -65.89,23.41 -44.48,88.78 15.05,45.94 47.98,38.06 87.22,53.15 2.38,44.7 -3.62,61.74 -14.56,96.57 -25.1,-7.4 -11.76,6.51 -26.54,-27.24 -42.02,-95.94 -106.61,-136.44 -66.51,-213.52 20.48,-39.36 7.78,-27.88 45.43,-45.74 47.3,-22.43 29.22,-0.2 70,-9.37 26.96,-6.06 85.92,-63.25 107.73,-78.12 -0.61,-33.01 -1.27,-25.81 -15.28,-48.81 -14.4,-23.64 -0.22,-35.79 -23.34,-50.99l-39.57 -17.26c-13.69,-7.93 -9.52,-15.89 -20.57,-29.57 -14.06,-17.41 -27.9,-6.28 -39.63,-17.25 -10.8,-10.09 -1.45,-12.88 -9,-30.21 -9.9,-22.72 -32.25,-12.46 -59.87,-15.69 -9.2,-19.89 3.09,-19.54 -10.75,-32.21 -11.69,-10.7 -19.92,-3.64 -36.61,-9.29 -38.82,-85.28 -60.81,-34.26 -88.61,-40.28 -31.92,-21.56 -36.85,-55.75 -83.76,-6 -7.24,7.68 -10.51,13.66 -15.47,18.35 -5.77,5.45 -1.83,2.47 -10.01,7.38 -7.12,4.27 -4.22,1.21 -11.69,5.52 -30.01,17.34 -0.09,18.22 -46.41,20.37 -21.68,87.54 -39.64,9.57 -59.11,88.86 -48.77,-8.4 -26.47,-27.08 -73.8,15.55 -75.04,-4.59 -43.48,-1.7 -74.58,40.09 -23.35,31.38 -44.35,24.92 -13.04,68.96 -13.55,18.33 -27.81,13.98 -26.5,44.76 1.39,32.75 15.05,27.17 31.87,40.22 -11.77,92.28 -6.44,44.83 48.43,79.49 17.11,10.81 22.24,22.12 54.88,11.7 30.3,-9.68 19.42,-13.21 63.92,-12.03l64.59 201.2c15.13,37.57 38.93,55.26 22.76,89.65 -12.5,26.59 -24.88,80.2 -42.03,92.96 -4.22,-4.39 -38.45,-52.2 -41.54,-59.19 -25.58,-57.7 11.41,-273.85 -16.93,-305.09 -5.95,-6.56 -29.64,2.11 -46.19,5.31l0.02 255.85c-27.24,-16.93 -118.47,-160.11 -111.96,-206.07 2.47,-17.45 54.36,-84.08 7.5,-79.78 -33.78,3.1 -71.55,92.57 -82.49,115.55 -14.73,-13.58 -8.98,-0.85 -10.48,-24.03l4.04 -80.56c0.66,-73.17 -4.05,-157.87 11.9,-228.91 24.65,-109.83 60.42,-62.31 51.32,-299.8 -2.58,-67.39 -20.73,-138.21 30.89,-190.54 28.69,2.76 23.37,23.05 55.98,21.52 47.54,-2.24 87.82,-18.21 88.61,-72.94 0.5,-34.81 -9.74,-23.96 -5.87,-43.63 5.98,-30.31 -2.02,-18.27 -13.67,-36.01 -11.62,-17.7 -2.66,-9.79 -8.22,-26.3 -9.37,-27.8 -21.31,-11.43 -49.38,-22.56 8.13,-44.7 31.9,-25.78 29.34,-72.12 -2.15,-39.04 18.71,-55.65 -26.52,-67.6 2.99,-39.54 -20.74,-62.57 -40.53,-94.55l-39.93 5.52c-34.63,-71.58 -58.96,-19.9 -86.12,8.84 -26.43,-0.26 -21.1,-14.15 -42.06,-5.32 -22.93,9.66 -5.4,20.07 -29.11,32.74 -29.5,15.76 -14.74,4.89 -34.65,28.35 -13.04,15.36 -26.69,5.55 -40.35,22.64 -13.94,19.26 0.43,11.37 -7.36,36.23 -4.2,13.41 -14.52,16.68 -12.68,33.93 4.48,42.09 26.47,-3.2 20.83,75.41 -34.91,21.68 -12.81,1.18 -31.63,37.87 -15.02,29.3 -23.39,12.81 -18.37,56.57 9.42,8.08 15.41,10.68 25.26,19.13 13.92,11.93 13.02,16.04 23.69,27.22 24.73,25.94 34.52,7.04 67.57,5.55 27.05,90.5 71.33,146.2 55.69,192.43 -10.74,31.75 -31.91,68.98 -33.82,97.31 -2.34,34.83 7.26,94.35 -5.33,122.59 -15.61,-15.89 -10.64,-31.72 -22.66,-45.99 -33.35,42.02 29.33,42.79 15.46,224.67l-11.96 34.7c-10.87,-19.98 -27.22,-78.35 -35.71,-104.44 -22.01,-67.6 -15.91,-51.04 -8.75,-119.24 3.89,-37.08 12.5,-67.5 12.81,-102.26l1.27 -13.2c0.39,-1.29 1,-2.85 1.54,-4.07 3.26,-7.49 27.75,-31.08 35.22,-39.47 19.03,-21.36 15.87,-20.43 10.52,-49.46 19.13,-13.78 15.3,-1.55 20.01,-22.94 3.2,-14.56 -1.59,-28.76 -4.69,-41.67l-33.39 -7.05c32.18,-40.57 0.94,-51.26 -27.27,-67.72 -18.8,-10.97 -8.51,-8.83 -20.26,-19.18 -21.33,-18.78 -23.8,0.06 -43.53,-30.6 -16.37,-25.44 -33.48,-25.91 -40.29,-38.73 -23.37,-74.31 23.01,-86.03 40.96,-121.03 10.21,-19.9 -2.66,-33.14 -13.49,-48.02 -14.18,-19.48 -23.8,-49.56 -46.19,-57.5 -24.28,-8.61 -16.82,-5.83 -31.89,-28.02l-37.63 -48.2c-39.39,-39.6 -70.07,6.32 -94.33,33.51 -27.17,-10.97 -86.31,-66.95 -97.23,49.29 -42.48,-1.51 -78.88,-17.18 -49.24,90.95 -37.17,25.58 -58.26,-7.35 -33.21,82.07 -36.55,1.17 -34.74,-2.57 -49.46,21.95 -48.42,-12.79 -91.65,-54.33 -98.3,38.29 -36.69,2.64 -44.01,1.18 -53.96,29.73 -10.69,30.68 5,8.11 -15.92,25.84 -38.98,33.05 -6.61,35.37 3.84,72.75 -18.15,11.04 -28.63,4.93 -27.71,29.62 0.78,20.83 17.2,22.67 32.42,31.51 6.52,43.64 1.74,55.17 60.2,43.01 25.31,34.02 5.64,54.22 69.45,49.48 6.42,64.6 51.45,40.25 99.37,27.44 23.27,-6.22 18.91,-10.46 40.79,-17.74 28.31,14.61 57.27,31.28 77.27,56.56 0.81,1.03 1.71,2.43 2.55,3.42 0.83,0.99 1.84,2.29 2.7,3.23l21.65 18.64c16.24,19.41 -0.2,3.98 11.27,25.89 11.5,21.98 37.91,19.23 59.5,12.74 14.72,-40.81 8.53,-110.42 23.91,-151.22l31.2 -0.06c7.3,58.14 -21.9,144.82 -9.11,179.95 43.41,-3.77 16.87,-73.58 26.45,-107.02 5.13,-17.9 -0.72,-8.31 10.8,-19.56 69.86,112.32 88.57,200.75 129.31,324.12 15.29,46.29 30.54,92.27 -20.28,104.63 1.57,-32.59 14.21,-76.29 1.02,-107.6 -28.27,13.69 -23.15,122.24 -41.69,160.38 -10.81,22.24 0.99,9.16 -16.17,19.79 -13.02,-24.04 -51.91,-144.11 -47.8,-167.71 7.39,-12.62 34.21,-12.91 45.1,-23.63 47.4,-46.68 22.34,-40.5 8.39,-74.98 -12.47,-30.8 3.56,-10.57 -25.6,-30.16 -43.88,-29.47 11.29,-42.34 -68.1,-45.3 -9.91,-23.85 -25.43,-39.87 -57.8,-40.76 -28.52,-0.78 -17.15,5.35 -46.69,-2.28 -37.25,-9.62 -35.18,22.26 -62.44,32.52 -34.2,12.87 24.33,-6.6 -9.3,2.17 -62.76,16.35 -30.15,56.09 -72.98,52.99l0.97 -85.69c19.96,2.22 29.89,17.8 46.92,15.63 13.75,-1.74 32.3,-18.33 33.25,-35.58 1.19,-21.29 -39.32,-79.48 -49.28,-94.74 -41.95,7.52 -91.23,42.99 -143.11,24.38 -22.81,-15.29 -46.44,-70.7 -94.76,-59.12 -44.19,10.59 -32.46,-10.61 -57.94,-2.04 -16.85,5.67 -7.49,7.02 -21.37,17.83 -8.57,6.68 -22.19,11.24 -29.17,15.89 -8.03,48.15 8.72,26.91 -23.54,52.56 0.88,27.76 12.53,45.62 19.11,68.48l-42.9 18.74c-6.57,22.01 1.57,23.68 -9.65,41.71 -9.39,15.09 -13.79,4.69 -16.89,35.35 11.34,21.3 14.31,10.25 19.47,25.64 7.41,22.11 -13.28,33.15 26.24,44.95 5.65,1.69 25.05,0.55 25.78,11.84l6.58 39.57c14.43,56.63 13.64,118.56 21.11,176.35 10.79,83.52 36.26,144.49 36.6,234.18 0.48,126.99 -23.84,423.01 -15.57,515.96l80.87 25.17 -11.7 -53.98c4.78,-78.26 -4.13,-347.4 22.49,-455.76l13.31 -27.87c22.57,187.84 55.39,372.52 57.19,560.25 17.16,10.22 58.24,9.28 77.98,5.33 -14,-174.96 -9.21,-488.67 60,-655.23 16.22,-39.05 22.61,-60.41 41.93,-68.07 75.69,267.3 23.08,389.79 45.7,488.8 16.2,65.54 -9.78,196.09 -1.5,266.9 14.74,4.18 15.79,1.7 33.45,2 22.78,0.39 24.34,3.15 42.29,-2.89 28.22,-1.19 23.59,9.02 27.48,-17.4 2.58,-17.53 -7.33,-313.17 1.14,-351.17l9.71 -24.11c1.94,-47 107.22,-346.74 111.91,-353.11 25.54,33.62 17.96,255.37 19.35,315.3 2.15,92.83 26.58,203.98 34.04,299.45 12.81,164.03 -7.28,587.53 4.37,662.11l-15.07 214.27c8.39,25.61 23.91,58.19 27.13,84.29 7.59,61.57 14.3,50.59 19.13,83.89 8.52,0 5.67,-1.84 6.27,7.84 2.37,4.98 15.09,43.27 17.44,50.66 3.73,11.74 11.71,46.93 14.21,61.48l25.3 42.3c12.64,21.27 -6.6,11.41 17.8,13.43 7.89,-11.26 20.52,-84.37 43.83,-122.76 7.59,-12.5 11.05,-43.91 4.24,-57.35 1.07,-30.12 -12.19,-74.59 -5.11,-103.05 8.07,-46.18 -20.7,-606.46 -21.96,-715.52 -1.41,-122.71 -0.95,-245.51 -1.02,-368.24 -0.06,-118.48 -4.2,-248.03 18.11,-358.8 20.93,8.87 4.77,-18.38 26.54,51.2 6.36,20.35 12.49,34.56 18.18,55.34 31.79,116.09 78.93,202.31 108.77,343.47 46.19,218.56 -2.7,461.33 12.08,574.04 1.68,24.4 1.16,46.71 -0.91,71.26 -2.27,26.98 -8.63,45.47 7.65,62.46 7.82,-14.65 36.22,-120.11 62.46,-153.73l12.1 -37.6c3.55,-25.34 17.8,-44.85 22.06,-69.37 4.34,-24.94 1.31,-64.56 -0.05,-90.73 -2.48,-47.87 -13.04,-136.94 -3.53,-179.63 12.11,-66.27 -4.76,-285 0.97,-364.73 2.61,-36.29 6.98,-14 14.19,-43.68l21.06 34.79c79.4,227.16 108.23,107.97 99.83,417.29 -1.39,51.13 -10.72,133.04 -8.06,176.21l-0.31 10.77c-6.67,18.21 -17.33,39.89 -9.43,65.16l98.94 258.41c6.89,12.5 -3.02,2.44 8.85,11.35 3.59,-5.42 12.66,-23.57 15.46,-34.87 5.15,-20.78 -0.39,-191.52 1.78,-215.27 0.61,-6.63 1.04,-10.42 2.61,-16.95 0.51,-2.12 1.06,-3.5 1.59,-5.38l3.93 -10.48c-4.99,-54.53 2.98,-490.95 19.17,-555.14 11.3,-44.8 23.73,-120.34 39.13,-158.04 28.67,13.7 90.85,409.65 92.31,429.28 11.47,153.94 -18.11,443.94 -6.07,523.44 10.44,41.28 -2.72,144 -2.56,195.42 0.11,37.02 -6.02,72.78 -6.12,97.56 -0.15,38.08 2.37,74.4 -2.44,112.26 -9.45,37.53 24.28,97.76 33.39,127.34 10.04,32.56 3.2,30.98 20.45,38.83l10.15 -34.11c4.17,-18.62 4.34,-10.07 11.32,-31.04 24.22,-72.78 28.35,-6.91 37.63,-43.74 2.93,-11.59 18.04,-40.76 23.86,-62.8l13.13 -47.45c6.85,-12.22 -0.7,-6.19 9.63,-9.35 5.91,5.69 6.02,1.31 14.19,5.28 12.22,-12.9 -15.5,-31.36 2.33,-31.69 4.27,19.49 11.29,8.66 -11.15,22.79 -8.07,5.09 12.66,19.76 7.5,22.06l-12.35 5.82c-0.94,0.46 -2.85,1.2 -4.07,2.12 3.22,16.6 2.67,21.62 12.07,33.71 22.26,-30.69 -25.19,-28.46 20.44,-46.07l-18.33 25.66c8.07,10.89 9.06,9.87 12.41,24.77 156.15,-77.66 39.3,-469.61 260.18,-787.21zm284.72 -190.98c-2.41,2.63 -51.24,29.08 -66.27,32.09 -0.65,-21.93 7.1,-154.15 -3.81,-171.52 14.72,-76.61 -11.25,-281.02 11.31,-349.68 5.92,-18.02 24.08,-74.65 31.62,-86.09 14.55,22.7 26.24,87 32.88,117.78 9.15,42.44 -5.04,393.44 -5.73,457.43zm-154.15 7.48c-7.57,18.81 -4.85,30.7 -7.08,50.57 -31.65,6.82 -66.27,16.31 -101.5,16.12 -3.94,-41.8 -0.59,-108.64 -13.37,-144.51 6.02,-62.41 -11.46,-197.42 -14.54,-268.08 -3.44,-79.1 -12.16,-253.22 -2.39,-282.11l4.59 -9.62c1.12,1.47 2.24,2.06 2.67,4.86l21.4 69.93c19.83,118.43 44.69,97.89 94.96,199.82 45.39,92.02 13.38,253.4 15.25,363.02zm-256.7 -334.36c2.73,80.72 16.76,313.69 0.97,382.72 -28.9,-4.22 -50.26,26.26 -84.46,4.35 1.74,-43.84 -3.02,-115.81 -4.46,-160.49 -1.71,-52.84 2.38,-89.04 6.17,-133.85l38.19 -206.48c-3.44,-16.58 5.62,0.96 -5.59,-12.14 -34.54,61.04 -31.28,136.28 -55,168.2 -11.92,-19.43 -9.09,-126.65 -7.01,-141.1 17.16,-11.91 24,-18.48 39.24,-33.32 16.98,-16.54 19.79,-27.78 43.45,-33.24 14.73,49.45 20.98,107.29 28.5,165.36zm-63.23 694.33l-7.49 -43.22c12.38,-42.09 -5.63,-197.07 -7.3,-251.78 23.76,4.83 27.21,18.02 38.22,34.98 6.99,10.77 17.19,27.06 21.41,35.11 28.86,55.08 8.5,125.6 1.77,161.12 -1.5,7.9 -0.49,7.31 -1.91,14.93 -3.78,20.29 -2.91,51.5 -8.05,89.94 -7.5,56.21 -19.06,28.31 -29.86,37.81 -0.93,-13.2 -1.07,-28.58 -2.22,-42.64l-8.78 -34.16 4.2 -2.09zm-92.72 -351.1c2.13,146.42 4.35,291.72 3.7,438.54 -0.32,71.76 -0.48,143.52 -1.06,215.28l3.16 101.77c-0.44,17.35 -12.16,68.57 -15.97,90.89l-15.36 53.76c7.16,-61.74 -28.34,-922.2 -19.58,-1099.06 18.94,20.96 13.17,50.6 28.53,93.76 9.48,26.66 16.19,75.46 16.58,105.06zm-458.1 -564.66c13.02,9.44 13.39,13.88 22.18,29.59 8.33,14.91 12.61,24.54 18.44,37.54 36.67,81.82 29.9,201.96 24.9,293.83 -15.04,-8.08 -126.76,-167.71 -96.5,-261.04 5.33,-16.44 24.96,-90.04 30.98,-99.92zm305.92 25.25c31.74,27.45 23.51,215.65 24.16,281.13 0.41,40.74 6.58,78.35 -7.71,97.63 -18.16,-68.74 -33.76,-133.94 -54.43,-199.84 -24.75,-78.87 -34.73,-75.44 10.8,-139.98 9.1,-12.91 13.11,-33.89 27.19,-38.94zm-411.67 60.75c11.57,6.18 24.93,23.83 30.85,40.97 10.36,29.96 3.94,46.22 -15.74,56.91l-15.11 -97.88zm505.7 109.71c-1.7,-32.92 -5.39,-139.28 -0.26,-166.91l59.19 -110.7c3.38,5.48 3.32,3.79 5.6,14.69l3.36 67.69c0.96,24.39 1,60.46 -3.84,84.09 -4.66,22.73 -16.96,40.21 -27.02,57.97 -6.43,11.36 -7.46,15.5 -12.62,26.52 -8,17.06 -7.44,18.43 -24.41,26.67zm98.31 -115.43l33.62 -175.85c19.28,20.02 43.56,87.79 46.13,120.1 -14.31,10.15 -21.67,15.46 -37.14,29.61 -14.97,13.69 -19.89,24.41 -42.61,26.14zm-164.02 -101.31c9.31,13.17 12.71,34.33 5.67,50.22 -15.03,-5.3 -17.61,-3.63 -19.85,-25.85 -1.84,-18.23 1.36,-18.45 14.18,-24.36zm-628.83 -162.38l15.45 27.88c38.22,103.44 70.93,126.22 101.2,180.52 15.93,28.57 8.49,263.94 5.85,313.34 -20.48,-9.54 -19.47,-33.63 -28.06,-59.35 -6.77,-20.28 -19.36,-40.74 -28.76,-61.24 -15.81,-34.51 -36.23,-88.55 -50,-131.27 -38.19,-118.49 -81.48,-139.85 -25.55,-253.11l7.09 -12.46c0.64,-1.08 1.72,-2.96 2.78,-4.3zm-670.26 2.58c0.05,-52.39 -16.24,-77.19 35.63,-73.52 12.01,125.91 7.17,257.88 -20.37,369.88 -9.81,-10.35 -3.32,1.77 -8.15,-13.75l-7.1 -282.61zm1977.59 94.02c19.28,-14.22 3.77,-11.58 31.26,-16.98l1.62 87.65c-3.1,29.73 -3.46,15.79 -9.81,22.99 -8.94,-19.76 -24.15,-71.06 -23.07,-93.66zm-251.45 -90.85c2.05,1.31 4.06,1.23 4.76,3.68l23.22 31.11c72.73,156.53 106.85,94.91 101.95,310.06 -23.31,-7.31 -14.24,-3.95 -28.79,-26.52l-61.45 -91.21c-31.3,-71.62 -21.44,-129.57 -61.43,-147.7l21.75 -79.42zm-268.42 132.78c-10.19,-17.37 -5.4,-22.81 -5.8,-45.24 -0.16,-9.32 -1.61,-19.91 -1.43,-28.73l4.83 -25.11c34.67,-7.44 36.22,6.56 26.67,37.19 -7.17,23 -11.81,49.77 -24.27,61.9zm-109.12 30.55c-1.85,-37.34 16.3,-129.11 81.45,-132.29 -3.51,16.25 -5.65,24.6 -13.12,37.83l-49.95 80.62c-14.67,17.72 2.69,5.02 -18.38,13.83zm-222.39 216.06c-1.24,-1.42 -2.61,-5.61 -3.04,-4.76l-7.3 -20.64c-3.3,-23.3 -4.75,-289.97 8.65,-321.96 9.92,-23.67 19.61,-63.13 32.94,-84.27l97.38 207.7 -37.21 53.96c-15.8,18.22 2.03,7.94 -23.28,16.5 -6.33,-30.91 -9.6,-62.9 -19.06,-95.1l-18.56 -65.7c-6.31,-15.51 -0.17,-7.01 -10.61,-18.6 -7.74,9.72 -12.3,10.77 -3.59,43.04l28.7 132.91c14.48,65.52 -13.33,47.35 -45.03,156.93zm224.36 -316.3c-4.81,-9.38 -7.33,-6.87 -4.56,-25.24 3.43,-22.71 5.67,-16.77 24.31,-20.35 5.68,21.84 0.41,36.72 -19.75,45.58zm633.69 -1.56c-15.24,-24.85 -1.13,-19.64 5.89,-59.08 4.74,-26.63 6.04,-36.26 23.94,-53 1.72,37.57 2.34,112.13 -29.83,112.08zm-2033.48 360.55c-16.38,-25.63 -11.5,-136.02 -43.89,-246.86 -8.49,-29.04 15.52,-83.53 25.24,-118.85 4.36,-15.83 12.22,-38.22 17.32,-56.34 8.67,-30.85 -5.1,-42.57 12.66,-58.45 7.88,10.26 -4.02,200.43 -4.56,230.87 -0.89,50.29 10.2,219.06 -6.78,249.63zm1006.38 -581.52c7.45,15.95 11.05,60.29 17.44,85.65 20.25,80.35 62.83,153.33 58.58,247.15 -28.09,-9.41 -83.87,-116.23 -96.26,-143.31 -17.99,-39.31 -12.13,-175.89 20.24,-189.49zm-455.44 20.19c21.47,49.58 -18.64,503.72 -22.6,514.45 -24.35,-58.55 -22.82,-209.2 -31.02,-287.24 -13.37,-127.22 -54.31,-68.92 30.56,-203.34 13.19,-20.89 4.1,-15.43 23.07,-23.87zm1275.8 13.49c1.99,112.54 31.79,172.11 31.65,207.19 -17.02,-7.7 -51.63,-69.45 -64.28,-89.51 -7.41,-11.75 -9.86,-3.44 -5.35,-27.92l20.81 -60.43c5.6,-22.37 7.09,-20.2 17.17,-29.34zm-1488.62 346.99c-17.11,-15.17 -6.74,2.02 -11.71,-20.33l5.09 -371.02c26.11,8.83 22.7,13.38 39.31,34.25 50.07,62.97 72.57,89.18 47.83,149.02 -28.61,69.2 -52.91,141.5 -80.52,208.07zm-224.81 -306.43c25.39,11.16 50.45,74.69 50.82,82.42 0.64,13.55 -31.25,76.76 -45.16,87.12 -0.91,-1.43 -1.84,-5.41 -2.1,-4.63l-5.64 -160.21c0.4,-1.28 1.16,-3.26 2.08,-4.7zm818.18 -40.04l35.49 -2.97c-0.54,28.15 -8.04,49.6 -16.37,67.18 -3.01,-5.51 -19.39,-59.58 -19.13,-64.2zm101.18 -45.94c34.39,-11.75 18.85,-21.38 49.67,-25.44l1.27 204.98c-27.38,-27.46 -50.03,-130.68 -50.94,-179.54zm170.02 63.94l2.15 -48.59 35.5 -0.02c-5.24,18.44 -3.74,10.44 -14.1,24.65 -12.4,17.02 -3.68,12.74 -23.56,23.96zm-63.17 87.34l-1.6 -160.83c19.81,0.48 10.1,-1.37 25.32,4.78l21.59 14.16c-11.72,32.13 1.87,126.74 -45.31,141.9zm-29.15 -186.06c11.28,1.86 15.41,-4.37 16.04,15.72 0.42,13.3 -5.37,16.27 -10.37,22.02 -8.58,-11.13 -13.08,-17.93 -5.67,-37.73zm866.78 352.2l4.27 -93.23c18.56,-56.66 -14.88,-71.35 48.07,-224.45 10.64,-25.88 9.5,-23.16 40.62,-21.13 -2.6,16.5 -7.62,28.11 -8.07,47.68 -1.72,76.17 8.4,30.28 -35.96,122.1 -30.57,63.29 -22.06,119.64 -36.43,150.34l-12.51 18.69zm-12.76 -356.5l50.87 12.08c-3.26,24.06 -10.72,28.6 -17.35,46.12 -7.42,19.61 -6.35,32.91 -20.76,49.04 -11.66,-17.54 -6.49,-30.98 -7.04,-53.33 -0.5,-20.17 -4.39,-34.85 -5.72,-53.92zm-1755.71 -13.85c15.36,-10.7 42.83,-12.26 62.94,-11.26l-6.17 116.88c-22.37,-10.35 -8.39,13.03 -19.59,-24.06 -11.38,-37.69 -9.35,-38.7 -37.19,-81.56zm109.44 -11.33c22.22,-13.31 -1.56,-3.29 38.88,5.55 1.73,0.38 3.41,0.27 5.06,0.66 27.09,6.39 30.4,47.38 30.17,74.76 -24.06,-8.83 -39.09,-39.16 -46.86,-64.79 -2.67,-1.07 -15.94,-4.35 -16.56,-4.67 -22.22,-11.71 1.2,1.59 -10.69,-11.5zm-420.09 23.02c-10.5,-16.22 -15.52,-55.56 22.13,-57.19 -0.5,21.3 -9.87,42.42 -22.13,57.19zm-93.13 -52.8l60.59 5.72c0.35,10.7 2.31,231.97 -5.01,247.01 -5.37,11.04 -1.71,4.28 -8.65,11.67l-25.08 -202.39c-8.72,-35.67 -18.68,-36.3 -21.84,-62.01zm383.78 44.98c14.22,41.44 35.65,79.84 51.65,124.77 11.7,32.85 18.54,136.38 3.28,167.06 -0.95,-1.15 -2.25,-4.52 -2.63,-3.63l-36.68 -77.28c-13.59,-22.68 -37.22,-51.24 -44.91,-73.17 24.31,-17.46 24.5,4.08 42.18,-25.43 24.89,-51.7 -64.74,-95.13 -81.09,-105.67 -15.58,-10.05 -5.05,-7.23 -21.03,-13.42 -9.54,-3.7 -4.34,-1.08 -13.42,-3.49l-13.76 -3.71c-14.37,-26.71 -6.67,-73.8 -3.18,-107.56l2.61 -81.25c4.25,-30.02 -3.61,-13.96 13.28,-22.58 20.19,43.37 -1.56,152.2 -1.96,160 -2.42,47.13 66.04,55.45 105.66,65.36zm-149.02 -188.2c13.63,6.59 8.83,-2.52 13.96,13.85l1.29 46.2c-4.74,19.81 -0.52,8.22 -13.1,19.72l-11.61 -59.83c3.39,-25.83 2.7,-11.17 9.46,-19.94zm-33.99 16.59l10.26 17.32c2.42,5.02 3.73,8.34 6.24,16l18.95 117.42c-40.73,30.94 -13.56,-19.31 -83.78,70.57 -19.88,25.44 -41.6,82.59 -30.48,116.13l58.95 4.63c1,41.06 -34.71,103.74 -57.85,177.73l-12.93 23.63c-13.3,-18.6 -2.01,-66.38 -2.31,-109.62 -0.24,-34.85 -6.34,-76.14 -10.24,-107.94 -10.06,-81.96 31.29,-134.13 34.31,-210.97 42.15,6.75 29.5,27.77 77.87,5.31 16.58,-69.98 -33.26,-89.75 -8.98,-120.2zm1860.85 78.77c-8.46,-26.23 -2.87,-65.82 -2.46,-98.17 13.66,-10.28 14.18,-13.17 35.79,-18.17 -1.22,20.5 -6.63,38.85 -10.41,61.6 -1.82,11 -3,16.53 -5.37,26.37 -6.11,25.3 -5.95,20.64 -17.54,28.37zm47.48 -51.41c-1.22,-25.55 5.64,-46.53 17,-63.12l35.41 -3.52c-4.73,25.22 -8.48,23.13 -21.18,38.91 -13.25,16.47 -10.01,20.69 -31.23,27.74zm-101.25 -91.9c15.89,-8.99 23.89,-2.78 42.02,2.67 0.96,36.04 3.7,29.04 -7.92,44.98 -23.42,-11.95 -2.1,3.95 -18.44,-24.08 -11.86,-20.34 -7.09,0.1 -15.65,-23.57zm-1406.09 -156.86c26.97,62.72 40.94,51.18 114.62,49.19l-34.63 115.47c-1.93,-3.09 -1.98,-0.89 -6.67,-12.09 -20.09,-48 -4.91,-55.48 -65.64,-102.14 -11.31,-8.7 -16.26,-7.65 -19.77,-19.32 -12.58,-41.83 9.65,-29.04 12.09,-31.11zm-233.35 12.2c32.37,-7.67 35.69,-0.67 40.25,30.06 -13.95,-2.54 -19.98,-2.89 -27.85,-8.83 -12.23,-9.22 -6.54,-5.51 -12.4,-21.23zm77.52 -31.81c11.18,19.23 20.24,86.53 17.78,97.09 -3.91,16.87 0.38,4.45 -8,14.48 -15.26,-15.07 -22.92,-40.81 -32.15,-59.56 -13.45,-27.31 -26,-52.65 22.37,-52.02zm30.66 -0.88l29.16 6.85c-0.11,16.07 0.47,15.79 -3.46,31.35 -0.07,0.28 -3.1,10.58 -3.83,12.3 -5,11.78 -5.31,9.45 -8.24,12.59 -5.98,-17.67 -15.77,-44.3 -13.63,-63.08zm419.72 -178.86l-2.43 -35.02c12.9,-4.53 9.17,-8.2 30.92,0.7 -2.24,13.7 -1.84,10.23 -8.37,18.32 -6.39,7.91 -8.29,10.24 -20.12,16zm-53.83 -82.03c10.5,-2.74 8.2,-4.48 5.91,6.25 8.89,-1.92 7.03,-3.6 5.26,5.36 10.37,-2.16 9.09,-4.71 6.28,5.19 11.04,-3 8.76,-4.8 5.9,6.35 12.74,1.99 8.05,31.01 9.12,48.72l-6.4 161.56c1.44,11.78 9.96,33.93 12.63,49.32 8.63,49.81 -12.45,155.37 -39.16,182.63 -2.44,-7.03 -3.54,-200.02 -0.76,-225.72 4.2,-38.82 -2.33,-4.86 7.96,-20.46 9.65,-14.62 5.61,18.03 10.41,-18.85 1.49,-11.44 -7.97,-37.74 -13.01,-50.22 -16.87,-41.73 -8.48,-55.74 -2.95,-102.82 -0.3,-37.28 1.82,-10.89 -8.39,-20.87 -20.58,8.99 -14.49,-13.57 -20.16,58.24 -12.44,-7.54 -28.37,-45.45 -27.77,-63.18l33.33 4.42c2.53,-11.93 6.79,-23.07 12.89,-30.87 19.95,-2.22 4.3,-1.32 8.92,4.93z"/>
   <path class="fil0" d="M3512.76 4067.94c25.46,1.68 118.3,-54.34 142.8,-68.61 38.94,-22.69 85.46,-63.63 119.04,-90.5 144.5,-115.67 287.04,-312.64 339.04,-499.2 72.34,-259.59 54.94,-499.43 42.61,-778.83 -10.53,-238.61 28.35,-239.57 -57.55,-182.31 -29.37,19.58 -35.46,16.05 -35.37,63.04 0.26,139.65 -8.84,272.31 -12.04,408.22 -1.64,69.49 -3.87,135.84 -7.43,204.2l-8.66 191.14c-0.28,1.25 -1.33,5.45 -1.55,4.69 -0.22,-0.76 -0.97,3.12 -1.69,4.58l-7.29 -98.63c-1.38,-32.48 -0.96,-66.17 -2.21,-97.64 -3.56,-89.75 -8,-583.09 -14.2,-597.24 -31.66,13.74 -80.36,165.2 -96.29,212.68 -11.44,34.09 -37.17,764 -64.97,863.87 -27.03,-33.98 -13.48,-475.95 -35.98,-512.06 -13.05,10.06 -34.14,105.2 -40.69,123.91 -14.64,41.78 -23.01,76.67 -37.05,121.19 -25.72,81.55 -51.11,160.22 -73.94,244.11l-109.48 365.16c-6.31,19.8 -36.38,108 -37.11,118.22z"/>
   <path class="fil0" d="M1870.19 2410.75c-1.99,356.26 -64.1,762.89 63.8,1071.95 93.77,226.6 270.24,427.56 477.69,541.75 24.45,13.46 76.48,44.11 99.1,46.92 -0.17,-44.52 -52.43,-184.87 -65.66,-239.11 -38.19,-156.51 -116.57,-403.33 -164.7,-576.85 -8.45,-30.48 -15.56,-95.8 -40.02,-99.05 -8.51,79.02 -5.23,176.46 -12.78,260.17 -7.65,84.76 -14.63,166.22 -18.69,253.59 -25.89,-25.59 -35.25,-228.96 -43.59,-289.49 -13.07,-95.01 -14.42,-196.81 -25.57,-295.81 -11.55,-102.5 -8,-212.69 -12.71,-318.15 -4.12,-92.28 -27.81,-121.88 -57.44,-184.59 -10.8,-22.86 -12.51,-36.57 -37.45,-42.37 3.87,99.09 -9.36,919.14 -25.35,949.26 -23.4,-56.26 -41.02,-662.07 -43.5,-767.42 -1.33,-56.51 3.42,-221.09 -7.21,-262.83 -10.33,-13.16 -2.76,-5.46 -18.7,-16.19 -15.65,-10.53 -52.78,-31.97 -67.22,-31.76z"/>
   <path class="fil0" d="M2786.99 3672.46c-18.57,7.06 -7.71,-8.46 -19.43,23.1l-27.83 84.36c-20.98,59.42 -122.51,314.89 -122.23,334.19 103.71,43.43 267.16,70.11 394.74,70.92 91.71,0.59 323.3,-25.15 389.61,-69.87 -2.34,-25.65 -22.35,-70.2 -32.57,-97.1 -15.24,-40.11 -82.94,-257.04 -107.77,-269.97 -6.49,11.58 -15.78,190.06 -26.46,229.02 -19.14,-48.2 1.62,-303.3 -41.8,-422.92l-95.27 -255.65c-10.46,-32.39 -18,-67.18 -39.79,-73.43 -9.24,131.48 -10.78,260.61 -21.62,391.49 -10.35,124.91 -11.66,265.02 -18.59,393.63 -12.37,-17.35 -13.77,-74.99 -14.07,-104.66 -0.38,-38.43 -1.92,-71.25 -5.73,-103.54l-16.78 -440.37c-0.87,-51.72 1.79,-174.56 -5.63,-218.45 -21.38,5.96 -27.3,47.41 -35.43,73.59 -9.19,29.59 -19.24,50.42 -28.51,78.43 -18.87,57.04 -38.66,107.58 -58.66,161.81 -21.84,59.22 -24.48,314.98 -36.93,405.8 -12.11,-13.1 -13.86,-28.57 -15.41,-48.07 -1.26,-15.92 -1.59,-31.69 -2.85,-47.66 -2.37,-30.1 -2.41,-70.48 -11.01,-94.69z"/>
   <path class="fil0" d="M3074.56 390.04c-1.59,-0.43 -77.75,-48.04 -79.91,42.71l-31.13 12.71 -0.27 35.88c-47.91,12.73 -16.58,30.36 -52.52,65.59 -30.27,29.67 -0.22,43.22 15.65,68.14l23.39 62.67c4.3,13.54 1.85,14.67 5.02,29.03 4.35,19.71 11.17,22.11 6.35,47.76 -9,48.02 -39.95,70.07 77.59,83.06 17.64,1.95 69.21,17.98 93.79,24.57 51.15,13.71 36.45,80.18 39.13,141.75 1.67,38.26 -3.98,37.36 25.03,41.63 18.3,-35.25 -1.58,-111.9 -0.89,-157.6 13.28,8.96 12.75,-10.73 22.54,53.87 6.89,45.45 18.99,73.88 32.11,114.57 7.62,23.64 8.75,35.22 34.09,38.33 14.01,-29.56 10.36,-84.57 18.37,-121.86 12.56,-58.45 36.55,-58.74 41.7,-77.59l-0.71 -18.22c-21,-5.48 -18.45,-2.8 -31.46,14.33 -36.81,48.51 -32.47,75.1 -39.78,96 -9.41,26.91 4.83,-6.33 -3.86,8.87 -7.48,13.09 2.71,1.52 -9.41,10.69 -7.41,-22.19 -11.28,-57.89 -19.15,-84.07 -7.17,-23.86 -33.17,-54.45 -7.04,-70.59 16.23,15.11 5.93,12.16 13.82,35.76 74.4,5.72 64.28,-12.43 105.02,-36.7 104.69,-62.35 78.67,-141.02 79.44,-180.19 0.4,-20.57 6.52,-28.8 -8.41,-48.78 -52.68,-70.53 -32,-19.29 -79.19,-28.09 -19.42,-3.62 0.46,-2.25 -19.73,-4.78 -17.8,-2.22 5.86,1.93 -12.28,-0.69 -10.89,-1.57 -4.15,1.67 -12.36,-3.03 -0.49,-38.79 32.72,-52.59 -6.72,-81.92 -1.17,-0.87 -2.72,-1.93 -3.83,-2.74l-8.14 -5.98c5.91,-51.85 -5.67,-53.99 -53.7,-56.28 -2.89,-25.33 -2.78,-28.52 -12.3,-43.77l-38.68 4.26c-10.83,-20.35 -24.52,-45.79 -45.98,-48.17 -24.53,-2.72 -38.76,24.09 -55.58,38.88z"/>
   <path class="fil0" d="M2819.65 1058.72c64.83,37.49 35.76,-9.8 62.91,13 10.74,9.02 7.6,32.54 -0.62,48.67l-4.35 -8.69c-13.43,-37.52 -5.54,-21.71 -19.89,-29.56l0.35 24.79c2.24,40.19 4.85,59.45 29.56,75.01 9.65,-3.56 11.31,-6.04 17.87,-11.73l10.46 -83.44c63.26,2.85 4.11,33.05 45.32,46.74 13.05,-25.52 -9.4,-22.75 15.66,-45.16 29.52,-26.39 59.17,15.83 83.37,-69.29 58.27,3.79 77.76,18.88 66.3,-53.73 13.65,-7.58 16.42,-2.52 24.39,-17 -13.67,-38.04 -8.96,-4.45 -45.58,-53.54 -13.22,-17.71 -29.55,-31.76 -60.01,-35.21 -33.67,-3.81 -59.43,8.17 -83.3,-14.29 -28.58,-26.89 -17.19,-22.06 -63.14,-37.09 -22.93,14.61 -10.33,20.95 -44.75,24 -86.42,7.67 -85.51,-15.46 -82.59,121.79l22.06 215.69c0.33,2.88 1.93,14 2.79,16.29 0.66,1.74 1.28,3.06 2.08,4.63l9.77 11.22c25.5,-14.51 12.14,14.13 4.09,-72.31 -2.15,-23.08 -9.75,-57.76 -8.9,-72.02l16.17 1.24z"/>
   <path class="fil0" d="M3492.02 1145.5l29.65 7.38c1.03,0.43 2.75,1.48 4.13,2.22 6.14,22.85 -0.11,75.87 -6.3,101.8 -19.06,-13.41 -6.96,27.94 -17,-52.29 -3.07,-24.52 -11.44,-29.49 -10.49,-59.1zm-77.56 -260.64c-32.72,3.98 1.45,-1.05 -48.22,25.81 -61.25,33.13 -50.75,148.85 -43.13,169.3 3.65,9.81 28.08,36.24 34.2,39.37 32.64,16.7 17.71,-17.38 47.96,13.35 27.29,27.72 11.3,71 27.84,98.4 7.84,12.98 -5.68,-0.13 9.68,9.09 6.95,-8.27 4.19,-1.56 8.15,-14.78 8.39,-27.95 -12.41,-40.83 -16.73,-98.78l38.28 8.19c-1.36,112.94 18.16,109.62 30.72,144.39 10.37,28.69 -1.02,25.97 18.9,38.83 10.71,-8.94 9.44,-3.41 14.61,-36.15 22.73,-144.07 -15.28,-127.92 36.13,-134.35 13.79,-1.72 19.26,-1.78 30.37,-4.62 12.69,-58.28 8.33,-158.51 -42.57,-176.73 -32.43,-11.6 -49.25,-19.08 -86.09,-25.68 -45.27,-8.1 -35.42,-34.56 -60.09,-55.67z"/>
   <path class="fil0" d="M3834.94 1408.5c31,-69.35 24.98,-179.89 -34.65,-234.19 -12.37,-11.27 -12.84,-17.7 -33.28,-19.66 -1.15,12.65 3.39,35.79 8.44,44.99 12.63,22.97 10.6,2.2 24.86,26.29 -16.24,28.09 -22.87,1.96 -27.07,51 -3.02,35.15 -13.54,158.34 -2.31,187.15 25.77,66.07 54.16,-33.57 64,-55.58z"/>
   <path class="fil0" d="M3567.43 1392.35c15.46,-9.61 7.95,4.07 13.25,-18.71 6.91,-29.69 7.61,-142.2 -3.8,-179.79 -20.03,14.45 -7,-18.49 -15.79,20.78l-4.47 135.99c-3.76,52.23 4.04,37.28 10.81,41.73z"/>
   <path class="fil0" d="M3916.11 1376.76c3.06,65.96 37.54,85.93 41.57,58.14 4.43,-30.57 -15.94,-33.54 -22.12,-53.47 -9.33,-9.22 -3.05,13.74 -8.53,-7.55 -0.72,-2.79 -3.84,-2.15 -4.38,-3.14l-6.54 6.02z"/>
   <path class="fil1" d="M2017.09 5391.95c-4.79,0 -14.36,-1.2 -23.34,-2.99 -9.57,-1.2 -23.34,-2.99 -36.5,-2.99 -56.25,0 -85.57,32.31 -85.57,68.82 0,31.12 15.56,52.06 65.23,77.19 34.7,17.95 46.07,29.32 46.07,51.46 0,20.94 -16.76,34.71 -40.69,34.71 -8.98,0 -19.75,-2.39 -28.72,-7.18 -15.56,-8.38 -28.13,-23.94 -35.91,-56.25 -2.39,-1.2 -12.57,1.8 -13.76,3.59 0.6,13.17 4.79,51.46 8.98,64.63 14.96,6.58 40.09,11.37 61.04,11.37 52.06,0 90.96,-29.92 90.96,-72.41 0,-28.13 -11.37,-47.27 -60.44,-71.21 -44.88,-21.54 -53.26,-34.11 -53.26,-54.46 0,-22.14 16.76,-35.31 36.5,-35.31 10.77,0 19.75,1.8 28.13,6.58 11.97,7.18 17.35,19.75 20.94,46.08 1.8,1.8 11.97,1.2 13.17,-0.6 1.2,-23.94 2.99,-41.89 7.18,-61.04zm120.88 -91.56c0,-4.19 -1.8,-11.97 -5.39,-15.56 -1.2,-1.2 -7.78,-5.39 -16.76,-5.39 -9.57,0 -22.14,5.39 -26.93,10.17 -2.99,3.59 -3.59,11.97 -2.99,16.76 1.2,10.17 5.98,19.15 13.76,22.74 4.79,2.39 22.74,0.6 25.73,-1.79 7.18,-4.19 12.57,-15.56 12.57,-26.93zm35.3 314.76c-13.17,-1.8 -16.76,-2.39 -23.94,-4.79 -8.37,-2.99 -11.96,-8.98 -11.96,-20.35 -0.6,-28.13 -0.6,-69.41 -0.6,-101.73 0,-36.5 0,-81.39 0.6,-102.93 -23.34,10.17 -57.45,16.76 -75.4,17.35 -1.2,1.8 -2.39,10.17 -1.2,12.57 11.37,3.59 20.35,5.98 26.33,12.57 3.59,4.19 4.19,8.98 4.19,12.57 0,10.77 0.6,32.31 0.6,55.65 0,32.91 0,76 -1.2,90.96 -1.2,14.96 -3.59,19.75 -10.77,22.74 -6.58,2.99 -15.56,4.19 -24.54,5.39 -1.8,1.8 -1.8,11.97 0,13.76 9.57,0 32.31,-1.8 57.45,-1.8 25.13,0 46.67,1.8 58.64,1.8 1.8,-1.8 2.99,-11.97 1.8,-13.76zm19.75 0c-1.8,1.8 -1.8,11.97 0,13.76 8.38,0 24.54,-1.8 56.25,-1.8 32.31,0 49.07,1.8 58.64,1.8 1.8,-2.39 2.39,-11.97 1.2,-13.76 -9.57,-1.2 -19.15,-2.99 -25.13,-4.79 -7.18,-2.99 -10.17,-7.18 -10.77,-22.74 -1.2,-26.93 -1.2,-84.97 -1.2,-128.06 0,-12.57 1.8,-17.95 5.98,-21.54 13.76,-12.57 31.71,-19.15 49.07,-19.15 17.35,0 28.13,5.39 36.5,13.17 11.37,10.17 15.56,26.33 16.76,36.5 2.99,21.54 2.39,90.96 1.8,120.88 -0.6,12.57 -2.99,19.15 -11.97,21.54 -3.59,1.2 -12.57,2.99 -23.34,4.19 -1.8,1.8 -1.2,11.97 0,13.76 13.17,-0.6 30.52,-1.8 59.24,-1.8 30.52,0 46.68,1.8 55.06,1.8 2.39,-2.39 2.99,-11.37 1.8,-13.76 -11.37,-1.8 -19.15,-2.99 -28.13,-7.18 -4.79,-1.8 -7.18,-6.58 -7.18,-12.57 -0.6,-22.74 -0.6,-76.59 -0.6,-108.91 0,-28.72 -3.59,-52.66 -14.96,-70.02 -12.57,-19.15 -30.52,-30.52 -55.65,-30.52 -19.75,0 -48.47,11.97 -81.98,38.9 -0.6,1.2 -2.39,0 -2.39,-1.8 0,-10.17 0.6,-25.13 1.8,-34.71 0,-1.2 -1.8,-2.99 -2.39,-2.99 -15.56,8.98 -48.47,19.75 -72.41,22.74 -1.8,1.2 -2.99,8.38 -2.39,10.77 22.74,7.78 28.13,13.17 29.92,20.94 0.6,6.58 1.2,24.54 1.2,50.87 0,36.5 0,78.39 -1.2,98.14 -0.6,10.77 -3.59,19.15 -12.57,22.14 -5.98,1.8 -13.17,2.99 -20.94,4.19zm502.07 -28.13c1.2,-2.39 2.39,-11.37 2.39,-14.96 0,-1.8 -1.8,-2.99 -2.39,-2.99 -20.94,20.35 -46.08,28.13 -66.43,28.13 -26.93,0 -49.07,-8.38 -67.62,-31.72 -14.96,-17.35 -22.14,-44.88 -22.14,-74.2 0,-41.89 20.35,-81.98 64.03,-81.98 30.52,0 52.66,19.75 64.63,31.72 1.2,0.6 4.19,0 5.98,-0.6 4.79,-2.39 15.56,-14.36 19.15,-22.74 0.6,-1.8 1.2,-6.58 1.2,-8.38 -2.39,-6.58 -11.37,-11.97 -17.95,-14.96 -11.37,-5.39 -23.94,-8.38 -46.68,-8.38 -20.35,0 -52.66,10.17 -75.4,23.94 -40.09,23.94 -59.24,62.24 -59.24,104.72 0,29.92 7.78,58.04 23.34,79.59 19.15,26.33 45.48,40.09 82.58,40.09 25.13,0 64.03,-10.77 94.55,-47.28zm230.99 -14.96c-22.14,19.15 -43.69,25.13 -67.02,25.13 -25.73,0 -47.28,-7.78 -65.22,-28.13 -13.76,-15.56 -22.74,-41.29 -23.34,-62.83 0,-2.99 1.2,-6.58 3.59,-6.58 47.87,-1.8 130.45,-5.98 154.99,-13.17 1.8,-1.2 4.19,-9.57 3.59,-11.37 -5.39,-1.2 -7.78,-3.59 -8.38,-5.39 -4.79,-31.72 -24.54,-83.78 -81.98,-83.78 -17.35,0 -45.48,7.78 -62.83,19.15 -31.12,20.35 -52.06,56.25 -52.06,107.12 0,32.91 8.98,68.81 32.31,93.35 17.35,18.55 41.29,28.72 71.81,28.72 28.72,0 67.02,-15.56 94.55,-45.48 1.2,-1.8 2.99,-10.17 2.39,-14.36 0,-0.6 -1.8,-1.8 -2.39,-2.39zm-102.33 -166.96c33.51,0 51.46,35.91 55.06,66.43 0,2.39 -2.39,4.19 -3.59,4.79 -12.57,2.99 -83.18,4.79 -101.13,4.19 -1.2,0 -2.39,-2.39 -2.39,-4.19 2.99,-44.88 24.54,-71.21 52.06,-71.21zm448.21 210.64c-16.16,-2.39 -23.94,-2.99 -34.11,-5.39 -14.36,-3.59 -17.35,-13.17 -18.55,-35.91 -1.2,-23.34 -1.8,-127.46 -1.8,-159.78 0,-114.89 0.6,-129.26 2.39,-147.81 -0.6,-1.2 -5.39,-2.39 -6.58,-1.8 -20.35,11.97 -59.24,24.54 -90.96,27.53 -1.2,1.8 -2.39,10.77 -0.6,13.17 11.97,0 24.54,0.6 32.31,1.8 11.37,0.6 13.17,10.17 14.36,18.55 1.2,11.37 1.8,62.23 1.8,120.28 0,52.66 -0.6,103.52 -1.8,130.45 0,22.14 -4.19,31.12 -20.94,34.11 -10.17,2.39 -18.55,2.99 -31.12,4.19 -2.39,1.8 -1.8,11.97 0,13.76 11.37,0 39.49,-1.8 77.79,-1.8 37.7,0 61.64,1.8 76,1.8 1.8,-1.2 2.99,-11.37 1.8,-13.17zm96.94 44.88c122.07,-38.9 217.22,-135.84 217.22,-255.52 0,-76.59 -41.29,-140.03 -111.91,-140.03 -25.13,0 -51.46,9.57 -71.21,22.74 -35.31,23.34 -54.46,62.23 -54.46,103.52 0,63.43 43.09,107.12 88.56,107.12 24.54,0 62.24,-14.96 86.77,-31.12 1.2,-1.2 2.99,0 2.39,1.8 -22.14,68.81 -67.02,134.64 -163.37,178.33 -0.6,2.39 4.19,13.17 5.98,13.17zm87.37 -376.4c47.87,0 78.99,53.26 78.99,119.68 0,10.17 -0.6,22.14 -4.19,35.91 -1.2,4.19 -5.39,9.57 -8.98,12.57 -11.37,7.78 -28.72,13.17 -44.88,13.17 -41.29,0 -82.58,-29.32 -82.58,-99.34 0,-49.07 25.73,-81.98 61.63,-81.98zm367.43 -20.94c-8.38,7.18 -14.96,8.98 -28.72,8.98 -20.94,0.6 -54.46,-2.99 -65.83,-2.99 -4.19,0 -8.98,4.79 -11.97,8.38 -12.56,16.76 -43.68,90.96 -53.85,125.07 -0.6,2.99 -0.6,11.97 1.2,14.96 16.76,11.37 61.63,31.12 94.55,54.46 38.3,26.93 50.87,49.07 50.87,86.17 0,41.89 -28.72,70.61 -69.42,70.61 -47.27,0 -75.4,-26.93 -92.15,-53.86 -1.2,0 -5.98,1.2 -7.18,2.39 -4.19,7.18 -9.57,22.14 -9.57,28.72 0,5.39 4.19,14.36 8.98,19.15 14.36,13.76 37.7,26.93 74.8,26.93 63.43,0 138.83,-51.46 138.83,-125.67 0,-38.3 -15.56,-62.83 -49.67,-87.37 -28.72,-20.35 -78.99,-45.48 -108.91,-61.64 -1.2,-0.6 -2.99,-4.79 -2.39,-7.78 3.59,-11.97 14.96,-39.5 20.94,-50.86 1.2,-1.8 4.19,-4.79 7.18,-4.79 9.57,0 34.71,3.59 63.43,3.59 7.18,0 13.76,-2.99 19.75,-8.38 11.97,-10.77 22.74,-31.72 25.73,-40.09 0,-2.39 -5.39,-5.98 -6.58,-5.98zm210.04 1.8c-27.53,0 -52.66,10.17 -71.21,25.73 -20.94,16.76 -33.51,42.48 -33.51,68.81 0,32.91 15.56,59.84 59.84,90.36 1.2,0.6 1.2,2.39 -0.6,3.59 -62.23,43.69 -74.2,65.23 -74.2,91.56 0,38.3 28.72,88.57 107.71,88.57 62.83,0 114.3,-47.28 114.3,-99.34 0,-41.89 -22.74,-64.03 -74.8,-98.14 -1.2,-0.6 -0.6,-2.39 0,-2.99 47.87,-32.31 62.24,-54.46 62.24,-81.98 0,-50.26 -38.3,-86.17 -89.76,-86.17zm-11.97 17.35c36.5,0 64.03,29.92 64.03,73 0,22.14 -8.38,46.08 -37.1,70.02 -1.2,1.2 -3.59,1.8 -5.39,0.6 -48.47,-29.32 -74.2,-49.07 -74.2,-87.37 0,-34.11 20.94,-56.25 52.66,-56.25zm12.57 333.91c-48.47,0 -78.39,-38.9 -78.39,-78.99 0,-28.72 13.76,-50.26 44.88,-76 0.6,-0.6 4.79,-0.6 5.39,0 61.64,35.91 85.57,57.45 85.57,98.74 0,37.7 -26.93,56.25 -57.45,56.25z"/>
   <g style="clip-path:url(#id0)">
    <g>
    </g>
    <g style="clip-path:url(#id1)">
     <image x="1792.4" y="5199.47" width="2372.38" height="535.27" xlink:href="Logo_Images\Logo_ImgID1.png"/>
    </g>
    <g style="clip-path:url(#id2)">
    </g>
   </g>
   <g style="clip-path:url(#id3)">
    <g>
    </g>
    <g style="clip-path:url(#id4)">
     <image x="1792.4" y="5199.47" width="2372.38" height="535.27" xlink:href="Logo_Images\Logo_ImgID2.png"/>
    </g>
    <g style="clip-path:url(#id5)">
    </g>
   </g>
   <g style="clip-path:url(#id6)">
    <g>
    </g>
    <g style="clip-path:url(#id7)">
     <image x="1792.4" y="5199.47" width="2372.38" height="535.27" xlink:href="Logo_Images\Logo_ImgID3.png"/>
    </g>
    <g style="clip-path:url(#id8)">
    </g>
   </g>
   <g style="clip-path:url(#id9)">
    <g>
    </g>
    <g style="clip-path:url(#id10)">
     <image x="1792.4" y="5199.47" width="2372.38" height="535.27" xlink:href="Logo_Images\Logo_ImgID4.png"/>
    </g>
    <g style="clip-path:url(#id11)">
    </g>
   </g>
   <g style="clip-path:url(#id12)">
    <g>
    </g>
    <g style="clip-path:url(#id13)">
     <image x="1792.4" y="5199.47" width="2372.38" height="535.27" xlink:href="Logo_Images\Logo_ImgID5.png"/>
    </g>
    <g style="clip-path:url(#id14)">
    </g>
   </g>
   <g style="clip-path:url(#id15)">
    <g>
    </g>
    <g style="clip-path:url(#id16)">
     <image x="1792.4" y="5199.47" width="2372.38" height="535.27" xlink:href="Logo_Images\Logo_ImgID6.png"/>
    </g>
    <g style="clip-path:url(#id17)">
    </g>
   </g>
   <g style="clip-path:url(#id18)">
    <g>
    </g>
    <g style="clip-path:url(#id19)">
     <image x="1792.4" y="5199.47" width="2372.38" height="535.27" xlink:href="Logo_Images\Logo_ImgID7.png"/>
    </g>
    <g style="clip-path:url(#id20)">
    </g>
   </g>
   <g style="clip-path:url(#id21)">
    <g>
    </g>
    <g style="clip-path:url(#id22)">
     <image x="1792.4" y="5199.47" width="2372.38" height="535.27" xlink:href="Logo_Images\Logo_ImgID8.png"/>
    </g>
    <g style="clip-path:url(#id23)">
    </g>
   </g>
   <g style="clip-path:url(#id24)">
    <g>
    </g>
    <g style="clip-path:url(#id25)">
     <image x="1792.4" y="5199.47" width="2372.38" height="535.27" xlink:href="Logo_Images\Logo_ImgID9.png"/>
    </g>
    <g style="clip-path:url(#id26)">
    </g>
   </g>
   <path class="fil2" d="M1934.98 2328.98c0,0 224.79,86.94 268.96,186.57 44.17,99.63 398.4,1306.5 398.4,1306.5l419.34 -1114.84 421.11 1112.76 352.74 -1158.3c0,0 -2.32,-143.07 134.25,-225.26 136.57,-82.19 190.42,-115.14 190.42,-115.14 0,0 -193.8,95.33 -357.56,79.78 -163.76,-15.54 -221.33,-13.78 -221.33,-13.78 0,0 97.56,29.6 120.48,146.13 22.92,116.53 -258.64,949.1 -258.64,949.1l-379.57 -980.02 -375.3 985.82 -240.4 -848.72c0,0 -35.53,-131.07 25.52,-200 61.05,-68.94 98.86,-63.64 98.86,-63.64 0,0 9.72,-8.2 -116.35,12.29 -126.06,20.5 -272.1,-12.07 -348.7,-29.31 -76.6,-17.25 -132.22,-29.94 -132.22,-29.94z"/>
   <g style="clip-path:url(#id27)">
    <g>
    </g>
    <g style="clip-path:url(#id28)">
     <image x="1363.24" y="2122.63" width="2994.54" height="1992.61" xlink:href="Logo_Images\Logo_ImgID10.png"/>
    </g>
    <g style="clip-path:url(#id29)">
    </g>
   </g>
   <path class="fil3" d="M1934.98 2328.98c0,0 224.79,86.94 268.96,186.57 44.17,99.63 398.4,1306.5 398.4,1306.5l419.34 -1114.84 421.11 1112.76 352.74 -1158.3c0,0 -2.32,-143.07 134.25,-225.26 136.57,-82.19 190.42,-115.14 190.42,-115.14 0,0 -193.8,95.33 -357.56,79.78 -163.76,-15.54 -221.33,-13.78 -221.33,-13.78 0,0 97.56,29.6 120.48,146.13 22.92,116.53 -258.64,949.1 -258.64,949.1l-379.57 -980.02 -375.3 985.82 -240.4 -848.72c0,0 -35.53,-131.07 25.52,-200 61.05,-68.94 98.86,-63.64 98.86,-63.64 0,0 9.72,-8.2 -116.35,12.29 -126.06,20.5 -272.1,-12.07 -348.7,-29.31 -76.6,-17.25 -132.22,-29.94 -132.22,-29.94z"/>
   <g>
    <path class="fil4" d="M244.07 4583.71c5.5,16.2 -0.41,5.44 7.45,20.57 31.84,61.28 17.5,23.96 48.16,108.56l92.67 267.29c35.43,92.43 22.2,114.17 64.11,113.07l120.05 -342.27c12.43,-39.12 3.95,-33.47 20.68,-44.09 13.73,23.39 26.53,72.4 37.32,99.94 16.1,41.1 94.29,273.26 113.96,287.1 24.85,-4.93 25.29,-25.52 35.04,-52.96l136.59 -390.64c6.33,-17.3 17.29,-35.59 16.39,-53.86 -0.47,-9.58 -21.15,-29.07 -36.62,17.83 -28.87,87.57 -94.28,295.98 -119.98,357.89 -22.29,-13.46 -9.49,-9.43 -22.93,-49.33 -5.19,-15.43 -11.22,-29.98 -16.85,-46.91l-102.56 -286.39 -90.66 -1.41c9.19,75.87 65.49,-8.06 -8.51,192.35 -24.84,67.27 -39.71,127.15 -62.12,191.28 -14.24,-8.87 -7.58,1.48 -14.91,-21.38l-23.8 -73.91c-19.16,-56.93 -83.21,-266.14 -95.51,-286.8l-97.98 -5.94z"/>
    <path class="fil4" d="M4922.81 5056.84c-5.7,-26.59 -1.69,-342.08 -2.54,-408.38 -0.43,-34.07 -15.83,-34.55 103.38,-31.97 182.95,3.95 217.6,212.67 158.72,337.59 -45.52,96.58 -124.74,115.54 -259.57,102.76zm-119 -466.43c18.2,42.44 33.41,-11.57 33.88,92.71 0.5,111.64 5.61,267.89 -0.34,370.61 -1.26,21.73 -5.98,30.46 19.7,31.72l183.24 -1.34c74.35,-9.72 137.71,-30.51 177.55,-69.93 103.42,-102.33 90.06,-285.28 6.7,-356.43 -88.46,-75.5 -187.67,-66.19 -308.48,-67.85 -27.02,-0.37 -96.97,-7.42 -112.24,0.5z"/>
    <path class="fil4" d="M2581.1 4712.41c-0.05,-23.02 -0.7,-46.02 -0.87,-68.9 -0.24,-32.2 4.47,-27.65 36.94,-27.65 49.39,-0.01 82.37,-1.47 125.38,11.16 66.72,19.6 108.37,71.17 123.24,149.65 16.85,88.89 -6.46,162.35 -45.41,216.74 -44.13,61.61 -106.85,63.6 -207.73,63.64 -47.08,0.02 -31.86,-9.68 -31.93,-61.59l0.38 -283.04zm-115.16 -126.98c8.17,14.19 -0.43,6.22 14.06,20.5 7.48,7.37 7.96,4.52 13.94,15.22 12.04,21.54 5.16,392.98 4.47,423.38 -0.79,35.05 -6.43,37.69 25.8,38.62l183.91 -2.21c85.58,-9.69 126.19,-22.19 174.06,-69.72 118.99,-118.17 113.45,-404.94 -180.17,-418.73 -74.57,-3.5 -162.78,-5.48 -236.06,-7.05z"/>
    <path class="fil4" d="M1298.82 4607.2c118.76,-23.29 215.59,88.91 227.65,187.48 16.02,130.96 -11.94,253.17 -134.47,272.69 -202.3,32.23 -277.77,-222.86 -209.49,-369.54 23.26,-49.98 53.19,-78.24 116.31,-90.63zm311.08 280.9c32.01,-128.08 -55.22,-279.44 -214.77,-303.65 -271.45,-41.19 -400.95,232.11 -269.58,409.7 38.13,51.55 99.09,85.61 168.26,95.1 171.06,23.48 283.05,-68.95 316.09,-201.15z"/>
    <path class="fil4" d="M1856.55 4863.7c-39.83,-342.69 332.02,-333.32 366.97,-51.21 15.88,128.19 -34.24,247.15 -152.59,255.69 -73.11,5.28 -119.69,-19.61 -150.87,-58.42 -31.44,-39.12 -55.89,-80.55 -63.5,-146.06zm447.58 20.76c29.2,-129.58 -55.33,-269 -213.9,-298.65 -370.23,-69.24 -436.36,463.88 -102.45,503.02 168.11,19.7 286.21,-70.63 316.35,-204.37z"/>
    <path class="fil4" d="M4148.18 4595.29c0.76,1 2.01,2.15 2.62,2.7l8.43 7.11c23.99,16.8 36.13,11.23 38.41,63.19l1.16 366.25c-0.51,23.02 -8.65,47.43 10.75,51.66 22.13,4.82 19.32,-19.98 19.09,-36.7 -1.56,-112.39 3.39,-262.7 -3.56,-364.76 26.39,9.14 27.33,23.89 52.2,51.6l134.44 158.36c35.4,38.09 55.42,64.86 89.8,105.26 15.62,18.36 31.68,31.88 47.37,50.41 10.59,12.51 27.48,44.75 46.19,39.18l5.13 -64.81c1.42,-74 5.05,-421.08 -5.17,-439.51l-16.8 0.16c-20.48,35.85 5.41,303.39 -7.26,372.69 -4.44,-1.81 -41.13,-44.83 -45.66,-50.27 -17.07,-20.51 -27.43,-35.74 -43.34,-54.24 -32.4,-37.67 -63,-72.26 -93.18,-106.72 -19.21,-21.93 -120.13,-153.4 -146.19,-156.64l-73.41 -0.74c-11.57,0.7 -5.93,0.6 -13.2,2.35l-7.82 3.46z"/>
    <path class="fil4" d="M3759.48 4690.04c10.19,7.2 1.75,-0.72 8.49,8.85l16.72 37.23c6.87,17.54 12.35,32.27 19.42,48.91 8.73,20.56 37.98,81.05 36.24,100.91l-160.42 -0.15c0.32,-12.32 30.74,-79.37 36.95,-94.49l34.4 -86.61c4.44,-10.03 -8.88,16.36 3.66,-7.3l4.53 -7.33zm-187.69 394.79c33.15,-1.2 29.04,-4.79 39.14,-32.83l55.86 -139.29 190.84 -0.16c10.95,28.5 24.07,54.83 35.68,86.31 38.51,104.47 15.91,83.96 121.9,85.87 -3.32,-23.67 -43.87,-98.77 -56.07,-128l-155.98 -374.54c-39.58,-0.94 -34.76,9.94 -47.61,43.84 -33.06,87.2 -184.94,426.67 -183.76,458.8z"/>
    <path class="fil4" d="M3119.72 4584.64c9.34,31.34 16.83,23.31 23.38,46.16 9.65,33.66 -5.32,380.65 3.55,450.85 24.56,2.44 252.15,4.63 266.09,1.1 20.98,-5.3 17.31,-33.95 1.81,-34.76 -1.37,-0.07 -140.06,16.73 -190.11,4.52 -8.7,-86.55 12.71,-413.3 -3.66,-462.17l-101.07 -5.7z"/>
    <path class="fil5" d="M5451.72 5049.65c292.24,129.1 373.3,-125.94 245.84,-212.43 -54.85,-37.22 -177.97,-80.85 -169.53,-165.47 6.36,-63.71 95.56,-107.91 174.01,-16.56 15.83,18.43 -6.1,2.46 17.93,18.63l12.56 -60.97c-257.75,-103.68 -357.64,124.35 -184.25,229.13 58.93,35.61 176.77,75.28 131.43,177.72 -16.52,37.32 -70.92,55.57 -124.62,39.98 -42.95,-12.46 -53.65,-46.37 -82.55,-73.52l-20.82 63.49z"/>
   </g>
  </g>
 </g>
</svg>
